<?xml version="1.0" standalone="no"?>
<!DOCTYPE svg PUBLIC "-//W3C//DTD SVG 20010904//EN" "http://www.w3.org/TR/2001/REC-SVG-20010904/DTD/svg10.dtd">
<svg version="1.0" xmlns="http://www.w3.org/2000/svg" width="680.000000pt" height="630.000000pt"
    viewBox="0 0 680.000000 630.000000" preserveAspectRatio="xMidYMid meet">
    <metadata>
        Created by potrace 1.16, written by Peter Selinger 2001-2019
    </metadata>
    <g transform="translate(0.000000,630.000000) scale(0.100000,-0.100000)" stroke="none">
        <path d="M3070 5984 c-195 -19 -454 -72 -635 -132 -510 -169 -980 -508 -1306
-942 -268 -358 -437 -760 -511 -1220 -19 -116 -22 -174 -22 -405 0 -231 3
-289 23 -405 88 -536 319 -1020 666 -1399 187 -204 347 -335 635 -520 52 -34
248 -131 335 -166 207 -84 407 -139 640 -177 187 -30 577 -32 755 -5 633 97
1137 351 1566 788 417 425 667 939 751 1539 24 171 24 528 0 696 -72 510 -265
962 -574 1347 -86 107 -305 325 -413 412 -368 296 -816 492 -1295 566 -126 20
-500 33 -615 23z m-530 -2044 c156 -12 255 -31 420 -85 218 -70 440 -70 651
-1 89 29 186 55 264 71 11 2 88 9 171 15 257 19 493 -8 794 -90 63 -17 136
-34 162 -37 67 -8 82 -28 86 -119 l4 -74 -47 -47 c-67 -66 -120 -195 -146
-358 -31 -190 -140 -369 -286 -468 -53 -36 -164 -82 -237 -97 -83 -17 -269
-14 -341 5 -259 69 -489 295 -600 588 -63 169 -117 223 -186 187 -26 -15 -62
-73 -94 -156 -70 -179 -141 -291 -259 -410 -174 -174 -373 -246 -615 -223
-162 15 -292 71 -400 173 -109 103 -165 220 -212 439 -33 156 -79 268 -126
308 -44 37 -53 60 -53 132 0 87 17 108 102 123 34 6 115 25 178 42 190 50 309
72 430 81 166 12 180 12 340 1z" />
        <path d="M2195 3813 c-138 -16 -209 -43 -279 -104 -86 -76 -126 -194 -126
-375 0 -375 237 -608 600 -592 166 8 287 64 420 197 87 87 125 139 181 250 68
136 83 249 53 383 -15 64 -22 78 -69 124 -44 44 -64 56 -132 77 -46 15 -128
30 -194 36 -105 10 -384 13 -454 4z m397 -299 c10 -32 18 -62 18 -65 0 -4 -54
-37 -120 -75 -66 -37 -120 -70 -120 -73 0 -3 46 -32 103 -63 150 -84 140 -72
120 -141 -9 -33 -22 -61 -29 -64 -6 -2 -99 46 -205 108 -107 62 -211 122 -231
134 -20 12 -34 25 -30 31 6 10 125 81 162 98 8 3 78 44 155 90 77 46 144 83
150 82 5 -1 17 -29 27 -62z" />
        <path d="M3960 3813 c-213 -20 -319 -59 -380 -136 -60 -76 -79 -252 -40 -374
39 -126 108 -239 211 -348 86 -90 191 -158 297 -192 69 -22 89 -24 192 -20
175 8 288 53 390 157 130 131 186 357 146 580 -37 199 -139 295 -350 326 -82
12 -369 17 -466 7z m170 -180 c0 -3 -15 -52 -34 -107 -19 -56 -64 -194 -101
-308 l-66 -208 -54 0 c-30 0 -55 2 -55 4 0 3 13 44 29 93 16 48 56 176 91 283
87 277 73 250 136 250 30 0 54 -3 54 -7z m242 -154 c95 -56 189 -110 208 -121
96 -51 99 -57 42 -88 -117 -65 -148 -83 -157 -90 -5 -4 -26 -17 -45 -27 -19
-11 -75 -44 -123 -72 -49 -29 -94 -51 -101 -48 -6 3 -20 31 -30 63 -22 69 -32
57 121 142 57 31 103 60 103 63 0 3 -54 36 -121 74 -114 64 -120 69 -114 94 7
31 37 111 41 111 1 0 80 -46 176 -101z" />
    </g>
</svg>