<svg version="1.2" baseProfile="tiny-ps" xmlns="http://www.w3.org/2000/svg" viewBox="0 0 475 450" width="475" height="450">
	<title>vi-5-svg</title>
	<defs>
		<clipPath clipPathUnits="userSpaceOnUse" id="cp1">
			<path d="M0 0L475 0L475 450L0 450L0 0Z" />
		</clipPath>
	</defs>
	<style>
		tspan { white-space:pre }
		.shp0 { fill: #feb187 } 
		.shp1 { fill: #f88b65 } 
		.shp2 { fill: #333049 } 
		.shp3 { fill: #28243f } 
		.shp4 { fill: #dc9266 } 
		.shp5 { fill: #0c2898 } 
		.shp6 { fill: #224dc2 } 
		.shp7 { fill: #133aaf } 
		.shp8 { fill: #2273db } 
		.shp9 { fill: #22a4fd } 
		.shp10 { opacity: 0.651;fill: #224dc2 } 
		.shp11 { fill: #4895fa } 
		.shp12 { fill: #52fffd } 
		.shp13 { fill: #2293f0 } 
		.shp14 { fill: #22b2ff } 
		.shp15 { fill: #67a5ff } 
		.shp16 { fill: #5fffff } 
		.shp17 { fill: #226ee5 } 
		.shp18 { fill: #111f9a } 
		.shp19 { fill: #1159c9 } 
		.shp20 { fill: #111b54 } 
	</style>
	<g id="Clip-Path: laptop_1" clip-path="url(#cp1)">
		<g id="laptop_1">
			<g id="banner-image">
				<g id="Group_35">
					<path id="Rectangle_33" class="shp0" d="M229.59 175.08L251.62 175.08L251.62 191.66L229.59 191.66L229.59 175.08Z" />
					<path id="Path_6" class="shp1" d="M229.59 188.07C231.35 188.73 233.17 189.22 235.01 189.55C236.86 189.89 238.73 190.05 240.61 190.05C242.48 190.05 244.35 189.89 246.2 189.55C248.05 189.22 249.86 188.73 251.62 188.08L251.62 192.9L245.56 194L240.61 195.01L229.59 191.37L229.59 188.07Z" />
					<path id="Rectangle_34" class="shp2" d="M203.92 284.17C203.92 279.4 207.79 275.52 212.57 275.52L268.5 275.52C273.27 275.52 277.14 279.4 277.14 284.17L277.14 297.68C277.14 302.46 273.27 306.33 268.5 306.33L212.57 306.33C207.79 306.33 203.92 302.46 203.92 297.68L203.92 284.17Z" />
					<path id="Path_7" class="shp3" d="M276.83 294.4C276.47 296.07 275.84 297.67 274.95 299.13C274.06 300.59 272.93 301.88 271.6 302.96C270.28 304.04 268.78 304.88 267.17 305.46C265.56 306.03 263.87 306.33 262.16 306.33L218.9 306.33C217.19 306.33 215.49 306.03 213.87 305.45C212.26 304.87 210.75 304.02 209.43 302.93C208.1 301.84 206.97 300.54 206.08 299.07C205.19 297.6 204.56 295.99 204.22 294.31C204.24 294.32 239.04 305.54 276.83 294.4L276.83 294.4Z" />
					<g id="Group_4">
						<g id="Group_3">
							<path id="Path_8" class="shp2" d="M244.17 125.98L259.55 110.6C260.11 111.81 260.52 113.08 260.79 114.38C261.05 115.69 261.16 117.02 261.11 118.35C261.06 119.68 260.86 121 260.51 122.29C260.15 123.57 259.65 124.81 259.01 125.98L265.35 119.63C265.35 119.63 268.21 128.19 262.42 132.87L267.66 127.64C267.66 127.64 270.96 137.36 258.8 144.82L244.17 125.98Z" />
							<path id="Path_9" class="shp3" d="M244.17 125.98L247.51 122.64C262.92 129 261.68 142.41 261.64 142.79L261.6 142.82L256.76 142.19L244.17 125.98Z" />
							<path id="Ellipse_4" class="shp0" d="M259.06 165.54C255.28 165.54 252.22 162.49 252.22 158.71C252.22 154.93 255.28 151.87 259.06 151.87C262.84 151.87 265.89 154.93 265.89 158.71C265.89 162.49 262.84 165.54 259.06 165.54Z" />
							<path id="Ellipse_5" class="shp0" d="M222.3 165.54C218.52 165.54 215.47 162.49 215.47 158.71C215.47 154.93 218.52 151.87 222.3 151.87C226.08 151.87 229.14 154.93 229.14 158.71C229.14 162.49 226.08 165.54 222.3 165.54Z" />
							<path id="Rectangle_35" class="shp2" d="M219.37 143.5C219.37 133.66 227.34 125.69 237.18 125.69L244.04 125.69C253.87 125.69 261.85 133.66 261.85 143.5L261.85 167.1C261.85 176.93 253.87 184.9 244.04 184.9L237.18 184.9C227.34 184.9 219.37 176.93 219.37 167.1L219.37 143.5Z" />
							<path id="Path_13" class="shp2" d="M242.61 182.34L242.61 188.08L240.96 186.43L239.37 188.03L237.68 186.34L236.13 187.89L236.13 182.34L242.61 182.34Z" />
							<path id="Path_14" class="shp2" d="M247.98 182.03L247.98 186.78L246.62 185.42L245.29 186.74L243.89 185.34L242.61 186.62L241.8 181.93L247.98 182.03Z" />
							<path id="Path_15" class="shp2" d="M236.63 181.93L236.13 186.78L234.77 185.42L233.44 186.74L232.04 185.34L230.76 186.62L230.76 182.03L236.63 181.93Z" />
						</g>
						<path id="Path_17" class="shp0" d="M192.83 230.2L202.73 232.27L202.73 248.92L188.74 248.92L191.12 234.12" />
						<path id="Path_18" class="shp4" d="M200.19 237.13L190.63 237.13L191.12 234.11L200.19 237.13Z" />
						<path id="Path_19" class="shp5" d="M202.74 237.98L185.71 232.32C196.96 202.47 205.87 200.97 215.89 196.07C213.96 210.07 202.74 237.98 202.74 237.98Z" />
						<path id="Path_20" class="shp0" d="M288.93 234.12L291.31 248.92L277.32 248.92L277.32 232.27L287.22 230.2" />
						<path id="Path_21" class="shp4" d="M288.93 234.11L289.42 237.13L279.86 237.13L288.93 234.11Z" />
						<path id="Path_22" class="shp5" d="M264.15 196.07C274.17 200.97 283.08 202.47 294.33 232.32L277.3 237.98C277.3 237.98 266.09 210.07 264.15 196.07Z" />
						<path id="Path_23" class="shp6" d="M245.5 294.32L234.51 294.32C215.77 294.32 204.14 285.44 204.14 264.83L200.44 224.56C200.45 220.09 201.34 215.67 203.06 211.54C204.77 207.41 207.28 203.66 210.44 200.5C213.6 197.34 217.35 194.83 221.48 193.11C225.61 191.4 230.03 190.51 234.5 190.49L245.5 190.49C249.97 190.51 254.39 191.4 258.52 193.11C262.64 194.83 266.39 197.34 269.55 200.5C272.72 203.66 275.23 207.41 276.94 211.53C278.66 215.66 279.55 220.09 279.56 224.56L273.74 262.39C273.74 286.18 264.24 294.32 245.5 294.32Z" />
						<path id="Path_24" class="shp7" d="M267.85 198.94C268.96 199.91 270.02 200.96 271 202.07C271.98 203.18 272.88 204.35 273.71 205.58C274.54 206.8 275.29 208.08 275.95 209.41C276.62 210.73 277.19 212.1 277.68 213.5L271.66 219.25L252.93 221.31L236.63 220.28L218.97 217.5L205.17 215.56L201.79 215.21C202.24 213.64 202.8 212.1 203.48 210.61C204.15 209.13 204.93 207.69 205.81 206.31C206.69 204.93 207.67 203.62 208.73 202.38C209.8 201.15 210.95 199.99 212.19 198.92C216.96 199.44 246.03 202.35 267.85 198.94L267.85 198.94Z" />
					</g>
					<g id="Group_5">
						<path id="Path_25" class="shp6" d="M223.97 391.9C229.22 391.9 233.48 394.35 233.48 397.38C233.48 400.41 229.22 399.95 223.97 399.95C218.72 399.95 214.46 400.41 214.46 397.38C214.46 394.35 218.72 391.9 223.97 391.9Z" />
						<path id="Path_26" class="shp2" d="M233.45 327.91L233.45 395.93C232.67 396.18 231.87 396.36 231.06 396.48C230.25 396.61 229.43 396.67 228.61 396.67C227.8 396.67 226.98 396.61 226.17 396.48C225.36 396.36 224.56 396.18 223.78 395.93L208.39 306.33L233.45 327.91Z" />
						<path id="Path_27" class="shp3" d="M233.45 348.52L233.28 349.42C228.18 336.4 216.92 341.59 214.43 341.46L211.44 325.68L231.72 327.78L232.63 327.91L233.45 329.41L233.45 348.52Z" />
						<path id="Path_28" class="shp6" d="M266.64 397.38C266.64 400.41 262.38 399.95 257.13 399.95C251.88 399.95 247.62 400.41 247.62 397.38C247.62 394.35 251.88 391.9 257.13 391.9C262.38 391.9 266.64 394.35 266.64 397.38Z" />
						<path id="Path_29" class="shp2" d="M272.71 306.33L257.32 395.94C256.54 396.18 255.74 396.37 254.93 396.49C254.12 396.61 253.3 396.67 252.48 396.67C251.67 396.67 250.85 396.61 250.04 396.49C249.23 396.37 248.43 396.18 247.65 395.94L247.65 327.91L272.71 306.33Z" />
						<path id="Path_30" class="shp3" d="M247.65 329.41L248.47 327.91L249.38 327.78L269.67 325.68L266.68 341.46C264.19 341.59 252.93 336.4 247.83 349.42L247.65 348.52L247.65 329.41Z" />
					</g>
					<g id="Group_34">
						<path id="Rectangle_36" class="shp8" d="M239.5 385.3C238.72 385.3 238.09 384.67 238.09 383.89L238.09 325.49C238.09 324.71 238.72 324.08 239.5 324.08L241.56 324.08C242.34 324.08 242.97 324.71 242.97 325.49L242.97 383.89C242.97 384.67 242.34 385.3 241.56 385.3L239.5 385.3Z" />
						<path id="Rectangle_37" class="shp9" d="M239.24 322.4L243.15 322.4C243.86 322.4 244.56 322.54 245.21 322.81C245.87 323.08 246.46 323.47 246.96 323.97C247.46 324.47 247.85 325.06 248.13 325.72C248.4 326.37 248.53 327.07 248.53 327.78L248.53 345.38C248.54 346.26 248.36 347.13 248.03 347.94C247.69 348.76 247.19 349.5 246.57 350.12C245.95 350.75 245.21 351.24 244.4 351.58C243.58 351.92 242.71 352.09 241.83 352.09L239.24 352.09C238.36 352.09 237.49 351.92 236.67 351.58C235.86 351.24 235.12 350.75 234.49 350.12C233.87 349.5 233.38 348.76 233.04 347.95C232.7 347.13 232.53 346.26 232.53 345.38L232.53 329.11C232.53 328.23 232.7 327.35 233.04 326.54C233.38 325.72 233.87 324.98 234.49 324.36C235.12 323.74 235.86 323.24 236.67 322.91C237.49 322.57 238.36 322.4 239.24 322.4L239.24 322.4Z" />
						<path id="Path_31" class="shp10" d="M248.54 330.63C247.28 330.07 245.97 329.65 244.63 329.36C243.29 329.08 241.92 328.94 240.55 328.94C239.18 328.94 237.81 329.08 236.47 329.36C235.13 329.65 233.82 330.07 232.56 330.63L232.56 324.92C233.82 324.37 235.13 323.95 236.47 323.66C237.81 323.38 239.18 323.24 240.55 323.24C241.92 323.24 243.29 323.38 244.63 323.66C245.97 323.95 247.28 324.37 248.54 324.92L248.54 330.63Z" />
						<g id="Group_11">
							<g id="Group_6">
								<path id="Path_32" class="shp6" d="M203.89 307.46L193.73 307.46C187.33 307.46 181.18 304.95 176.59 300.49C172 296.02 169.34 289.94 169.16 283.54C168.99 277.13 171.32 270.92 175.66 266.21C180 261.5 186 258.67 192.4 258.32C192.43 258.31 192.47 258.3 192.51 258.3C192.54 258.3 192.58 258.29 192.62 258.29C192.66 258.29 192.69 258.28 192.73 258.28C192.77 258.28 192.8 258.28 192.84 258.28L193.73 258.28C194.45 258.29 195.13 258.59 195.64 259.1C196.14 259.61 196.42 260.3 196.42 261.02C196.42 261.74 196.14 262.43 195.64 262.94C195.13 263.46 194.45 263.75 193.73 263.76C188.66 263.76 183.8 265.78 180.22 269.36C176.64 272.94 174.63 277.8 174.63 282.87C174.63 287.94 176.64 292.8 180.22 296.38C183.8 299.96 188.66 301.97 193.73 301.97L203.89 301.98C204.61 301.99 205.29 302.28 205.8 302.8C206.3 303.31 206.58 304 206.58 304.72C206.58 305.44 206.3 306.13 205.8 306.64C205.29 307.15 204.61 307.45 203.89 307.46L203.89 307.46Z" />
							</g>
							<g id="Group_10">
								<g id="Group_9">
									<g id="Group_7">
										<path id="Rectangle_38" class="shp11" d="M182.89 259.39C182.89 257.27 184.61 255.55 186.73 255.55L197.06 255.55C199.18 255.55 200.9 257.27 200.9 259.39L200.9 260.87C200.9 262.99 199.18 264.71 197.06 264.71L186.73 264.71C184.61 264.71 182.89 262.99 182.89 260.87L182.89 259.39Z" />
									</g>
									<g id="Group_8">
										<path id="Path_33" class="shp6" d="M187.47 256.07C186.89 256.08 186.32 256.19 185.79 256.4C185.25 256.62 184.76 256.93 184.34 257.33C183.92 257.73 183.58 258.2 183.34 258.73C183.09 259.25 182.95 259.82 182.92 260.39C182.91 260.31 182.89 260.22 182.89 260.13C182.89 259.53 183.01 258.94 183.24 258.38C183.47 257.83 183.81 257.32 184.24 256.9C184.66 256.47 185.17 256.13 185.72 255.9C186.28 255.67 186.87 255.55 187.47 255.55L196.32 255.55C196.92 255.55 197.52 255.67 198.07 255.9C198.62 256.13 199.13 256.47 199.55 256.9C199.98 257.32 200.32 257.83 200.55 258.38C200.78 258.94 200.9 259.53 200.9 260.13C200.9 260.22 200.88 260.31 200.88 260.39C200.84 259.82 200.7 259.25 200.46 258.73C200.21 258.2 199.87 257.73 199.45 257.33C199.03 256.93 198.54 256.62 198.01 256.4C197.47 256.19 196.9 256.08 196.32 256.07L187.47 256.07L187.47 256.07Z" />
									</g>
								</g>
							</g>
						</g>
						<g id="Group_17">
							<g id="Group_12">
								<path id="Path_34" class="shp6" d="M275.99 307.46C275.27 307.45 274.59 307.15 274.09 306.64C273.58 306.13 273.3 305.44 273.3 304.72C273.3 304 273.58 303.31 274.09 302.8C274.59 302.28 275.27 301.99 275.99 301.98L286.15 301.97C291.22 301.97 296.08 299.96 299.66 296.38C303.25 292.8 305.26 287.94 305.26 282.87C305.26 277.8 303.25 272.94 299.66 269.36C296.08 265.78 291.22 263.76 286.15 263.76C285.42 263.78 284.71 263.5 284.18 262.98C283.65 262.46 283.36 261.76 283.36 261.02C283.36 260.28 283.65 259.58 284.18 259.06C284.71 258.55 285.42 258.26 286.15 258.28L287.04 258.28C287.08 258.28 287.12 258.28 287.15 258.28C287.19 258.28 287.23 258.29 287.27 258.29C287.3 258.29 287.34 258.3 287.38 258.3C287.41 258.3 287.45 258.31 287.49 258.32C293.88 258.67 299.89 261.5 304.23 266.21C308.56 270.92 310.89 277.13 310.72 283.54C310.55 289.94 307.88 296.02 303.3 300.49C298.71 304.95 292.56 307.46 286.15 307.46L275.99 307.46L275.99 307.46Z" />
							</g>
							<g id="Group_16">
								<g id="Group_15">
									<g id="Group_13">
										<path id="Rectangle_39" class="shp11" d="M278.98 259.39C278.98 257.27 280.7 255.55 282.82 255.55L293.15 255.55C295.27 255.55 296.99 257.27 296.99 259.39L296.99 260.87C296.99 262.99 295.27 264.71 293.15 264.71L282.82 264.71C280.7 264.71 278.98 262.99 278.98 260.87L278.98 259.39Z" />
									</g>
									<g id="Group_14">
										<path id="Path_35" class="shp6" d="M292.41 256.07L283.56 256.07C282.99 256.08 282.41 256.19 281.88 256.4C281.34 256.62 280.85 256.93 280.43 257.33C280.01 257.73 279.67 258.2 279.43 258.73C279.18 259.25 279.04 259.82 279.01 260.39C279.01 260.3 278.98 260.22 278.98 260.13C278.98 259.53 279.1 258.93 279.34 258.38C279.57 257.82 279.9 257.32 280.33 256.89C280.75 256.47 281.26 256.13 281.81 255.9C282.37 255.67 282.96 255.55 283.56 255.55L292.41 255.55C293.01 255.55 293.61 255.67 294.16 255.9C294.72 256.13 295.22 256.47 295.65 256.89C296.07 257.32 296.41 257.82 296.64 258.38C296.87 258.93 296.99 259.53 296.99 260.13C296.99 260.22 296.97 260.31 296.97 260.39C296.93 259.82 296.79 259.25 296.55 258.73C296.3 258.2 295.96 257.73 295.54 257.33C295.13 256.93 294.63 256.62 294.1 256.4C293.56 256.19 292.99 256.08 292.41 256.07L292.41 256.07Z" />
									</g>
								</g>
							</g>
						</g>
						<path id="Path_890" class="shp11" d="M200.85 299.72L280.21 299.72C283.14 299.72 285.94 300.88 288.01 302.95C290.07 305.02 291.23 307.82 291.23 310.74C291.23 313.67 290.07 316.47 288.01 318.54C285.94 320.6 283.14 321.76 280.21 321.76L200.85 321.77C197.93 321.76 195.12 320.6 193.06 318.54C190.99 316.47 189.83 313.67 189.83 310.74C189.83 307.82 190.99 305.02 193.06 302.95C195.12 300.88 197.93 299.72 200.85 299.72L200.85 299.72Z" />
						<path id="Path_36" class="shp6" d="M196.76 301.55C195.46 302.08 194.27 302.84 193.26 303.81C192.24 304.78 191.42 305.93 190.84 307.21C190.26 308.48 189.92 309.86 189.85 311.26C189.84 311.09 189.83 310.92 189.83 310.74C189.83 309.3 190.12 307.87 190.67 306.53C191.23 305.19 192.04 303.98 193.06 302.96C194.09 301.94 195.3 301.12 196.64 300.57C197.97 300.01 199.4 299.73 200.85 299.72L280.21 299.72C281.66 299.73 283.09 300.01 284.43 300.57C285.76 301.12 286.98 301.94 288 302.96C289.02 303.98 289.83 305.19 290.39 306.53C290.94 307.87 291.23 309.3 291.24 310.74C291.24 310.92 291.22 311.09 291.21 311.26C291.14 309.86 290.81 308.48 290.22 307.21C289.64 305.93 288.82 304.78 287.81 303.81C286.79 302.84 285.6 302.08 284.3 301.55C283 301.03 281.61 300.76 280.21 300.75L200.85 300.75C199.45 300.76 198.06 301.03 196.76 301.55Z" />
						<path id="Path_37" class="shp11" d="M253.98 289.85L225.35 289.85C222.62 289.84 219.92 289.3 217.4 288.25C214.89 287.21 212.6 285.67 210.67 283.75C208.74 281.82 207.21 279.53 206.16 277.01C205.11 274.49 204.57 271.79 204.56 269.06L199.36 224.08C199.37 221.35 199.91 218.65 200.96 216.13C202.01 213.61 203.54 211.33 205.47 209.4C207.4 207.47 209.69 205.94 212.2 204.89C214.72 203.84 217.42 203.3 220.15 203.29L260.91 203.29C263.64 203.3 266.34 203.84 268.85 204.89C271.37 205.94 273.66 207.47 275.59 209.4C277.52 211.33 279.05 213.61 280.1 216.13C281.15 218.65 281.69 221.35 281.7 224.08L274.77 269.06C274.76 271.79 274.22 274.49 273.17 277.01C272.12 279.53 270.59 281.82 268.66 283.75C266.73 285.67 264.44 287.21 261.93 288.25C259.41 289.3 256.71 289.84 253.98 289.85L253.98 289.85Z" />
						<path id="Path_38" class="shp12" d="M220.15 204.16C217.47 204.17 214.82 204.7 212.34 205.71C209.86 206.73 207.6 208.21 205.68 210.08C203.76 211.95 202.22 214.17 201.14 216.63C200.07 219.08 199.47 221.72 199.39 224.4L199.36 224.08C199.37 221.35 199.92 218.65 200.96 216.13C202.01 213.61 203.54 211.33 205.47 209.4C207.4 207.47 209.69 205.94 212.21 204.89C214.73 203.84 217.43 203.3 220.15 203.29L260.91 203.29C263.64 203.3 266.34 203.84 268.85 204.89C271.37 205.94 273.66 207.47 275.59 209.4C277.52 211.33 279.05 213.61 280.1 216.13C281.15 218.65 281.69 221.35 281.7 224.08L281.67 224.34C281.58 221.67 280.98 219.04 279.9 216.59C278.82 214.14 277.28 211.93 275.36 210.06C273.45 208.2 271.19 206.72 268.71 205.71C266.23 204.7 263.58 204.17 260.91 204.16L220.15 204.16L220.15 204.16Z" />
						<path id="Rectangle_41" class="shp6" d="M200.65 320.26C200.65 318 202.48 316.17 204.73 316.17L276.33 316.17C278.59 316.17 280.42 318 280.42 320.26L280.42 321.83C280.42 324.09 278.59 325.92 276.33 325.92L204.73 325.92C202.48 325.92 200.65 324.09 200.65 321.83L200.65 320.26Z" />
						<path id="Rectangle_42" class="shp6" d="M219.3 328.56C219.3 327.01 220.56 325.75 222.12 325.75L258.94 325.75C260.5 325.75 261.76 327.01 261.76 328.56L261.76 332.69C261.76 334.24 260.5 335.5 258.94 335.5L222.12 335.5C220.56 335.5 219.3 334.24 219.3 332.69L219.3 328.56Z" />
						<path id="Path_39" class="shp13" d="M205.52 316.48C204.9 316.48 204.28 316.6 203.7 316.84C203.12 317.08 202.59 317.42 202.14 317.86C201.69 318.3 201.33 318.81 201.08 319.39C200.82 319.96 200.68 320.57 200.66 321.2C200.66 321.14 200.65 321.1 200.65 321.04C200.65 320.4 200.78 319.77 201.02 319.18C201.27 318.59 201.63 318.05 202.08 317.6C202.53 317.15 203.07 316.79 203.66 316.54C204.25 316.3 204.88 316.17 205.52 316.17L275.54 316.17C276.18 316.17 276.81 316.3 277.41 316.54C278 316.79 278.53 317.15 278.99 317.6C279.44 318.05 279.8 318.59 280.04 319.18C280.29 319.77 280.42 320.4 280.42 321.04C280.42 321.1 280.4 321.15 280.4 321.2C280.38 320.57 280.24 319.96 279.99 319.39C279.73 318.81 279.37 318.29 278.92 317.86C278.48 317.42 277.95 317.08 277.37 316.84C276.79 316.6 276.17 316.48 275.54 316.48L205.52 316.48L205.52 316.48Z" />
						<path id="Rectangle_43" class="shp8" d="M207.32 325.73C207.32 324.6 208.24 323.68 209.37 323.68L271.69 323.68C272.82 323.68 273.74 324.6 273.74 325.73L273.74 326.51C273.74 327.64 272.82 328.56 271.69 328.56L209.37 328.56C208.24 328.56 207.32 327.64 207.32 326.51L207.32 325.73Z" />
						<path id="Path_40" class="shp14" d="M208.85 324.02C208.56 324.14 208.3 324.31 208.07 324.53C207.85 324.75 207.67 325.01 207.54 325.29C207.41 325.58 207.34 325.89 207.33 326.2C207.33 326.17 207.32 326.15 207.32 326.12C207.33 325.8 207.39 325.48 207.51 325.19C207.64 324.89 207.82 324.62 208.04 324.4C208.27 324.17 208.54 323.99 208.83 323.87C209.13 323.75 209.44 323.68 209.76 323.68L271.3 323.68C271.62 323.68 271.93 323.75 272.23 323.87C272.53 323.99 272.79 324.17 273.02 324.4C273.25 324.62 273.43 324.89 273.55 325.19C273.67 325.48 273.74 325.8 273.74 326.12C273.74 326.15 273.73 326.17 273.73 326.2C273.72 325.89 273.65 325.58 273.52 325.29C273.4 325.01 273.21 324.75 272.99 324.53C272.77 324.31 272.5 324.14 272.21 324.02C271.92 323.9 271.61 323.84 271.3 323.84L209.76 323.84C209.45 323.84 209.14 323.9 208.85 324.02Z" />
						<path id="Path_41" class="shp9" d="M236.09 389.09L236.09 381.51C236.09 380.92 236.21 380.35 236.43 379.81C236.66 379.27 236.99 378.78 237.4 378.37C237.81 377.96 238.3 377.63 238.84 377.41C239.37 377.19 239.95 377.07 240.53 377.07L240.53 377.07C241.11 377.07 241.69 377.19 242.23 377.41C242.77 377.63 243.26 377.96 243.67 378.37C244.08 378.78 244.41 379.27 244.63 379.81C244.85 380.35 244.97 380.92 244.97 381.51L244.97 389.09" />
						<g id="Group_18">
							<path id="Path_42" class="shp8" d="M207.34 397.31C206.94 397.31 206.55 397.18 206.25 396.93C205.94 396.68 205.72 396.33 205.64 395.94C205.56 395.56 205.61 395.15 205.79 394.8C205.97 394.44 206.26 394.16 206.62 394C212.07 391.54 217.77 389.66 223.62 388.4C229.47 387.14 235.44 386.51 241.42 386.51C247.4 386.51 253.37 387.14 259.22 388.4C265.07 389.66 270.77 391.54 276.22 394C276.63 394.19 276.95 394.54 277.11 394.97C277.27 395.39 277.25 395.87 277.07 396.28C276.88 396.7 276.54 397.02 276.11 397.18C275.69 397.35 275.21 397.34 274.8 397.16C269.57 394.8 264.1 393 258.49 391.79C252.88 390.58 247.16 389.97 241.42 389.97C235.68 389.97 229.96 390.58 224.35 391.79C218.74 393 213.28 394.8 208.05 397.16C207.99 397.18 207.93 397.2 207.88 397.22C207.82 397.24 207.76 397.26 207.7 397.27C207.64 397.28 207.58 397.29 207.52 397.3C207.46 397.31 207.4 397.31 207.34 397.31Z" />
						</g>
						<path id="Rectangle_44" class="shp6" d="M233.22 386.95C233.22 386.04 233.96 385.3 234.88 385.3L246.88 385.3C247.79 385.3 248.53 386.04 248.53 386.95L248.53 389.38C248.53 390.29 247.79 391.03 246.88 391.03L234.88 391.03C233.96 391.03 233.22 390.29 233.22 389.38L233.22 386.95Z" />
						<path id="Rectangle_45" class="shp8" d="M239.66 389.19C239.66 388.62 240.11 388.16 240.68 388.16L241.07 388.16C241.64 388.16 242.09 388.62 242.09 389.19L242.09 402.52C242.09 403.08 241.64 403.54 241.07 403.54L240.68 403.54C240.11 403.54 239.66 403.08 239.66 402.52L239.66 389.19Z" />
						<path id="Path_891" class="shp6" d="M240.88 398.53C241.31 398.53 241.74 398.62 242.14 398.78C242.54 398.95 242.91 399.19 243.22 399.5C243.52 399.81 243.77 400.17 243.93 400.57C244.1 400.98 244.18 401.4 244.18 401.84L244.18 408.09C244.17 408.96 243.81 409.78 243.2 410.39C242.58 411 241.74 411.34 240.88 411.34C240.01 411.34 239.18 411 238.56 410.39C237.94 409.78 237.59 408.95 237.57 408.09L237.57 401.84C237.57 401.4 237.66 400.97 237.82 400.57C237.99 400.17 238.23 399.81 238.54 399.5C238.85 399.19 239.21 398.95 239.61 398.78C240.01 398.62 240.44 398.53 240.88 398.53L240.88 398.53Z" />
						<g id="Group_19">
							<path id="Ellipse_6" class="shp6" d="M278.5 405.5C275.05 405.5 272.26 402.71 272.26 399.26C272.26 395.81 275.05 393.02 278.5 393.02C281.95 393.02 284.74 395.81 284.74 399.26C284.74 402.71 281.95 405.5 278.5 405.5Z" />
							<path id="Path_43" class="shp6" d="M278.5 393.18C279.31 393.18 280.12 393.34 280.87 393.65C281.62 393.96 282.31 394.41 282.88 394.98C283.46 395.55 283.92 396.23 284.24 396.98C284.56 397.73 284.72 398.53 284.73 399.34C284.73 399.31 284.74 399.29 284.74 399.26C284.74 397.61 284.08 396.02 282.91 394.85C281.74 393.68 280.16 393.02 278.5 393.02C276.85 393.02 275.26 393.68 274.09 394.85C272.92 396.02 272.26 397.61 272.26 399.26C272.26 399.29 272.27 399.31 272.27 399.34C272.28 398.53 272.45 397.73 272.77 396.98C273.08 396.23 273.54 395.55 274.12 394.98C274.7 394.41 275.38 393.96 276.13 393.65C276.89 393.34 277.69 393.18 278.5 393.18L278.5 393.18Z" />
							<path id="Ellipse_7" class="shp15" d="M278.5 402.98C276.44 402.98 274.78 401.32 274.78 399.26C274.78 397.2 276.44 395.54 278.5 395.54C280.56 395.54 282.22 397.2 282.22 399.26C282.22 401.32 280.56 402.98 278.5 402.98Z" />
							<path id="Ellipse_8" class="shp8" d="M278.5 400.75C277.68 400.75 277.01 400.09 277.01 399.26C277.01 398.43 277.68 397.77 278.5 397.77C279.33 397.77 280 398.43 280 399.26C280 400.09 279.33 400.75 278.5 400.75Z" />
							<path id="Path_44" class="shp16" d="M278.5 397.85C278.69 397.85 278.88 397.88 279.06 397.96C279.24 398.03 279.4 398.14 279.54 398.27C279.68 398.4 279.79 398.56 279.86 398.74C279.94 398.92 279.98 399.1 279.99 399.3C279.99 399.28 280 399.27 280 399.26C280 398.86 279.84 398.48 279.56 398.2C279.28 397.92 278.9 397.76 278.5 397.76C278.11 397.76 277.73 397.92 277.45 398.2C277.17 398.48 277.01 398.86 277.01 399.26C277.01 399.27 277.01 399.28 277.01 399.3C277.02 399.1 277.06 398.92 277.14 398.74C277.22 398.56 277.33 398.4 277.46 398.27C277.6 398.14 277.76 398.03 277.94 397.96C278.12 397.88 278.31 397.85 278.5 397.85L278.5 397.85Z" />
						</g>
						<g id="Group_20">
							<path id="Ellipse_9" class="shp6" d="M205.6 405.5C202.15 405.5 199.36 402.71 199.36 399.26C199.36 395.81 202.15 393.02 205.6 393.02C209.05 393.02 211.84 395.81 211.84 399.26C211.84 402.71 209.05 405.5 205.6 405.5Z" />
							<path id="Path_45" class="shp8" d="M205.6 393.18C206.41 393.18 207.22 393.34 207.97 393.65C208.72 393.96 209.41 394.41 209.98 394.98C210.56 395.55 211.02 396.23 211.34 396.98C211.66 397.73 211.82 398.53 211.83 399.34C211.83 399.31 211.84 399.29 211.84 399.26C211.84 397.61 211.18 396.02 210.01 394.85C208.84 393.68 207.26 393.02 205.6 393.02C203.95 393.02 202.36 393.68 201.19 394.85C200.02 396.02 199.36 397.61 199.36 399.26C199.36 399.29 199.37 399.31 199.37 399.34C199.38 398.53 199.55 397.73 199.87 396.98C200.18 396.23 200.64 395.55 201.22 394.98C201.8 394.41 202.48 393.96 203.23 393.65C203.99 393.34 204.79 393.18 205.6 393.18L205.6 393.18Z" />
							<path id="Ellipse_10" class="shp15" d="M205.6 402.98C203.54 402.98 201.88 401.32 201.88 399.26C201.88 397.2 203.54 395.54 205.6 395.54C207.66 395.54 209.32 397.2 209.32 399.26C209.32 401.32 207.66 402.98 205.6 402.98Z" />
							<path id="Ellipse_11" class="shp8" d="M205.6 400.75C204.78 400.75 204.11 400.09 204.11 399.26C204.11 398.43 204.78 397.77 205.6 397.77C206.43 397.77 207.1 398.43 207.1 399.26C207.1 400.09 206.43 400.75 205.6 400.75Z" />
							<path id="Path_46" class="shp16" d="M205.6 397.85C205.79 397.85 205.98 397.88 206.16 397.96C206.34 398.03 206.5 398.14 206.64 398.27C206.78 398.4 206.89 398.56 206.96 398.74C207.04 398.92 207.08 399.1 207.09 399.3C207.09 399.28 207.1 399.27 207.1 399.26C207.09 398.87 206.92 398.5 206.65 398.23C206.37 397.95 205.99 397.8 205.6 397.8C205.21 397.8 204.84 397.95 204.56 398.23C204.28 398.5 204.12 398.87 204.11 399.26C204.11 399.27 204.12 399.28 204.12 399.3C204.12 399.1 204.16 398.92 204.24 398.74C204.32 398.56 204.43 398.4 204.56 398.27C204.7 398.14 204.86 398.03 205.04 397.96C205.22 397.88 205.41 397.85 205.6 397.85Z" />
						</g>
						<path id="Rectangle_47" class="shp6" d="M219.3 240.41C219.3 235.7 223.13 231.88 227.84 231.88L253.22 231.88C257.94 231.88 261.76 235.7 261.76 240.41L261.76 243.7C261.76 248.41 257.94 252.24 253.22 252.24L227.84 252.24C223.13 252.24 219.3 248.41 219.3 243.7L219.3 240.41Z" />
						<path id="Path_47" class="shp17" d="M251.58 231.88C252.92 231.88 254.24 232.15 255.47 232.66C256.7 233.17 257.83 233.92 258.77 234.87C259.71 235.81 260.46 236.93 260.98 238.17C261.49 239.4 261.76 240.72 261.76 242.06L261.76 242.06C261.76 242.11 261.75 242.17 261.75 242.22C261.73 240.9 261.45 239.6 260.92 238.39C260.4 237.17 259.65 236.07 258.71 235.15C257.77 234.22 256.65 233.48 255.43 232.98C254.21 232.48 252.9 232.22 251.58 232.21L229.48 232.21C228.16 232.22 226.85 232.48 225.63 232.98C224.41 233.48 223.3 234.22 222.35 235.14C221.41 236.07 220.66 237.17 220.14 238.39C219.62 239.6 219.34 240.9 219.31 242.22C219.31 242.17 219.3 242.11 219.3 242.06L219.3 242.06C219.31 240.72 219.57 239.4 220.09 238.17C220.6 236.93 221.35 235.81 222.29 234.87C223.24 233.92 224.36 233.17 225.59 232.66C226.82 232.15 228.15 231.88 229.48 231.88L251.58 231.88L251.58 231.88Z" />
						<path id="Rectangle_48" class="shp18" d="M235.7 242.36C235.7 240.82 236.95 239.57 238.49 239.57L242.57 239.57C244.12 239.57 245.36 240.82 245.36 242.36L245.36 318.25C245.36 319.79 244.12 321.04 242.57 321.04L238.49 321.04C236.95 321.04 235.7 319.79 235.7 318.25L235.7 242.36Z" />
						<g id="Group_21">
							<path id="Rectangle_49" class="shp19" d="M236.74 245.23C236.74 244.91 236.99 244.65 237.31 244.65L243.75 244.65C244.07 244.65 244.33 244.91 244.33 245.23L244.33 246.18C244.33 246.49 244.07 246.75 243.75 246.75L237.31 246.75C236.99 246.75 236.74 246.49 236.74 246.18L236.74 245.23Z" />
							<path id="Rectangle_50" class="shp20" d="M236.74 245.23C236.74 244.91 236.99 244.65 237.31 244.65L243.75 244.65C244.07 244.65 244.33 244.91 244.33 245.23L244.33 246.07C244.33 246.39 244.07 246.64 243.75 246.64L237.31 246.64C236.99 246.64 236.74 246.39 236.74 246.07L236.74 245.23Z" />
						</g>
						<g id="Group_22">
							<path id="Rectangle_51" class="shp19" d="M236.74 251C236.74 250.68 236.99 250.43 237.31 250.43L243.75 250.43C244.07 250.43 244.33 250.68 244.33 251L244.33 251.95C244.33 252.27 244.07 252.53 243.75 252.53L237.31 252.53C236.99 252.53 236.74 252.27 236.74 251.95L236.74 251Z" />
							<path id="Rectangle_52" class="shp20" d="M236.74 251C236.74 250.68 236.99 250.43 237.31 250.43L243.75 250.43C244.07 250.43 244.33 250.68 244.33 251L244.33 251.84C244.33 252.16 244.07 252.42 243.75 252.42L237.31 252.42C236.99 252.42 236.74 252.16 236.74 251.84L236.74 251Z" />
						</g>
						<g id="Group_23">
							<path id="Rectangle_53" class="shp19" d="M236.74 256.49C236.74 256.17 236.99 255.91 237.31 255.91L243.75 255.91C244.07 255.91 244.33 256.17 244.33 256.49L244.33 257.44C244.33 257.75 244.07 258.01 243.75 258.01L237.31 258.01C236.99 258.01 236.74 257.75 236.74 257.44L236.74 256.49Z" />
							<path id="Rectangle_54" class="shp20" d="M236.74 256.49C236.74 256.17 236.99 255.91 237.31 255.91L243.75 255.91C244.07 255.91 244.33 256.17 244.33 256.49L244.33 257.33C244.33 257.65 244.07 257.9 243.75 257.9L237.31 257.9C236.99 257.9 236.74 257.65 236.74 257.33L236.74 256.49Z" />
						</g>
						<g id="Group_24">
							<path id="Rectangle_55" class="shp19" d="M236.74 261.97C236.74 261.66 236.99 261.4 237.31 261.4L243.75 261.4C244.07 261.4 244.33 261.66 244.33 261.97L244.33 262.92C244.33 263.24 244.07 263.5 243.75 263.5L237.31 263.5C236.99 263.5 236.74 263.24 236.74 262.92L236.74 261.97Z" />
							<path id="Rectangle_56" class="shp20" d="M236.74 261.97C236.74 261.66 236.99 261.4 237.31 261.4L243.75 261.4C244.07 261.4 244.33 261.66 244.33 261.97L244.33 262.81C244.33 263.13 244.07 263.39 243.75 263.39L237.31 263.39C236.99 263.39 236.74 263.13 236.74 262.81L236.74 261.97Z" />
						</g>
						<g id="Group_25">
							<path id="Rectangle_57" class="shp19" d="M236.74 267.46C236.74 267.14 236.99 266.88 237.31 266.88L243.75 266.88C244.07 266.88 244.33 267.14 244.33 267.46L244.33 268.41C244.33 268.72 244.07 268.98 243.75 268.98L237.31 268.98C236.99 268.98 236.74 268.72 236.74 268.41L236.74 267.46Z" />
							<path id="Rectangle_58" class="shp20" d="M236.74 267.46C236.74 267.14 236.99 266.88 237.31 266.88L243.75 266.88C244.07 266.88 244.33 267.14 244.33 267.46L244.33 268.3C244.33 268.62 244.07 268.88 243.75 268.88L237.31 268.88C236.99 268.88 236.74 268.62 236.74 268.3L236.74 267.46Z" />
						</g>
						<g id="Group_26">
							<path id="Rectangle_59" class="shp19" d="M236.74 272.94C236.74 272.63 236.99 272.37 237.31 272.37L243.75 272.37C244.07 272.37 244.33 272.63 244.33 272.94L244.33 273.89C244.33 274.21 244.07 274.47 243.75 274.47L237.31 274.47C236.99 274.47 236.74 274.21 236.74 273.89L236.74 272.94Z" />
							<path id="Rectangle_60" class="shp20" d="M236.74 272.94C236.74 272.63 236.99 272.37 237.31 272.37L243.75 272.37C244.07 272.37 244.33 272.63 244.33 272.94L244.33 273.79C244.33 274.1 244.07 274.36 243.75 274.36L237.31 274.36C236.99 274.36 236.74 274.1 236.74 273.79L236.74 272.94Z" />
						</g>
						<g id="Group_27">
							<path id="Rectangle_61" class="shp19" d="M236.74 278.43C236.74 278.11 236.99 277.86 237.31 277.86L243.75 277.86C244.07 277.86 244.33 278.11 244.33 278.43L244.33 279.38C244.33 279.7 244.07 279.95 243.75 279.95L237.31 279.95C236.99 279.95 236.74 279.7 236.74 279.38L236.74 278.43Z" />
							<path id="Rectangle_62" class="shp20" d="M236.74 278.43C236.74 278.11 236.99 277.86 237.31 277.86L243.75 277.86C244.07 277.86 244.33 278.11 244.33 278.43L244.33 279.27C244.33 279.59 244.07 279.85 243.75 279.85L237.31 279.85C236.99 279.85 236.74 279.59 236.74 279.27L236.74 278.43Z" />
						</g>
						<g id="Group_28">
							<path id="Rectangle_63" class="shp19" d="M236.74 283.92C236.74 283.6 236.99 283.34 237.31 283.34L243.75 283.34C244.07 283.34 244.33 283.6 244.33 283.92L244.33 284.86C244.33 285.18 244.07 285.44 243.75 285.44L237.31 285.44C236.99 285.44 236.74 285.18 236.74 284.86L236.74 283.92Z" />
							<path id="Rectangle_64" class="shp20" d="M236.74 283.92C236.74 283.6 236.99 283.34 237.31 283.34L243.75 283.34C244.07 283.34 244.33 283.6 244.33 283.92L244.33 284.76C244.33 285.07 244.07 285.33 243.75 285.33L237.31 285.33C236.99 285.33 236.74 285.07 236.74 284.76L236.74 283.92Z" />
						</g>
						<g id="Group_29">
							<path id="Rectangle_65" class="shp19" d="M236.74 289.4C236.74 289.08 236.99 288.83 237.31 288.83L243.75 288.83C244.07 288.83 244.33 289.08 244.33 289.4L244.33 290.35C244.33 290.67 244.07 290.92 243.75 290.92L237.31 290.92C236.99 290.92 236.74 290.67 236.74 290.35L236.74 289.4Z" />
							<path id="Rectangle_66" class="shp20" d="M236.74 289.4C236.74 289.08 236.99 288.83 237.31 288.83L243.75 288.83C244.07 288.83 244.33 289.08 244.33 289.4L244.33 290.24C244.33 290.56 244.07 290.82 243.75 290.82L237.31 290.82C236.99 290.82 236.74 290.56 236.74 290.24L236.74 289.4Z" />
						</g>
						<g id="Group_30">
							<path id="Rectangle_67" class="shp19" d="M236.74 294.89C236.74 294.57 236.99 294.31 237.31 294.31L243.75 294.31C244.07 294.31 244.33 294.57 244.33 294.89L244.33 295.83C244.33 296.15 244.07 296.41 243.75 296.41L237.31 296.41C236.99 296.41 236.74 296.15 236.74 295.83L236.74 294.89Z" />
							<path id="Rectangle_68" class="shp20" d="M236.74 294.89C236.74 294.57 236.99 294.31 237.31 294.31L243.75 294.31C244.07 294.31 244.33 294.57 244.33 294.89L244.33 295.73C244.33 296.04 244.07 296.3 243.75 296.3L237.31 296.3C236.99 296.3 236.74 296.04 236.74 295.73L236.74 294.89Z" />
						</g>
						<g id="Group_31">
							<path id="Rectangle_69" class="shp19" d="M236.74 300.37C236.74 300.05 236.99 299.8 237.31 299.8L243.75 299.8C244.07 299.8 244.33 300.05 244.33 300.37L244.33 301.32C244.33 301.64 244.07 301.9 243.75 301.9L237.31 301.9C236.99 301.9 236.74 301.64 236.74 301.32L236.74 300.37Z" />
							<path id="Rectangle_70" class="shp20" d="M236.74 300.37C236.74 300.05 236.99 299.8 237.31 299.8L243.75 299.8C244.07 299.8 244.33 300.05 244.33 300.37L244.33 301.21C244.33 301.53 244.07 301.79 243.75 301.79L237.31 301.79C236.99 301.79 236.74 301.53 236.74 301.21L236.74 300.37Z" />
						</g>
						<g id="Group_32">
							<path id="Rectangle_71" class="shp19" d="M236.74 305.86C236.74 305.54 236.99 305.28 237.31 305.28L243.75 305.28C244.07 305.28 244.33 305.54 244.33 305.86L244.33 306.81C244.33 307.12 244.07 307.38 243.75 307.38L237.31 307.38C236.99 307.38 236.74 307.12 236.74 306.81L236.74 305.86Z" />
							<path id="Rectangle_72" class="shp20" d="M236.74 305.86C236.74 305.54 236.99 305.28 237.31 305.28L243.75 305.28C244.07 305.28 244.33 305.54 244.33 305.86L244.33 306.7C244.33 307.02 244.07 307.27 243.75 307.27L237.31 307.27C236.99 307.27 236.74 307.02 236.74 306.7L236.74 305.86Z" />
						</g>
						<g id="Group_33">
							<path id="Rectangle_73" class="shp19" d="M236.74 311.34C236.74 311.03 236.99 310.77 237.31 310.77L243.75 310.77C244.07 310.77 244.33 311.03 244.33 311.34L244.33 312.29C244.33 312.61 244.07 312.87 243.75 312.87L237.31 312.87C236.99 312.87 236.74 312.61 236.74 312.29L236.74 311.34Z" />
							<path id="Rectangle_74" class="shp20" d="M236.74 311.34C236.74 311.03 236.99 310.77 237.31 310.77L243.75 310.77C244.07 310.77 244.33 311.03 244.33 311.34L244.33 312.18C244.33 312.5 244.07 312.76 243.75 312.76L237.31 312.76C236.99 312.76 236.74 312.5 236.74 312.18L236.74 311.34Z" />
						</g>
					</g>
				</g>
			</g>
		</g>
	</g>
</svg>