<svg version="1.2" baseProfile="tiny-ps" xmlns="http://www.w3.org/2000/svg" viewBox="0 0 475 450" width="475" height="450">
	<title>vi-5-svg</title>
	<defs>
		<clipPath clipPathUnits="userSpaceOnUse" id="cp1">
			<path d="M0 0L475 0L475 450L0 450L0 0Z" />
		</clipPath>
	</defs>
	<style>
		tspan { white-space:pre }
		.shp0 { fill: #2753cc } 
	</style>
	<g id="Clip-Path: laptop_1" clip-path="url(#cp1)">
		<g id="laptop_1">
			<g id="banner-image">
				<g id="jquery">
					<path id="Path_4582" fill-rule="evenodd" class="shp0" d="M338.07 101.74L338.7 99.34L338.07 101.74L338.07 101.74ZM335.1 94.89L335.1 94.89L334.56 96.83L335.1 94.89ZM337.91 99.09L337.31 99.09L337.91 99.09ZM337.75 101.98L337.75 101.98L334.15 101.99L337.75 101.98ZM338.51 99.1L337.91 99.1L338.51 99.1ZM351.33 90.71L350.16 96.21L351.33 90.71ZM348.33 90.71L347.44 94.82L348.33 90.71Z" />
					<path id="Path_4583" fill-rule="evenodd" class="shp0" d="M351.22 90.48C351.24 90.5 351.27 90.52 351.28 90.54C351.3 90.56 351.31 90.58 351.32 90.61C351.33 90.64 351.33 90.67 351.33 90.7L348.99 101.7C348.98 101.73 348.97 101.76 348.95 101.79C348.93 101.82 348.91 101.85 348.88 101.87C348.85 101.89 348.82 101.91 348.79 101.92C348.76 101.93 348.72 101.94 348.69 101.94L343.17 101.94C339.71 101.86 339.55 99.09 340.18 96.19L340.23 95.95L340.78 93.33L341.34 90.71C341.34 90.68 341.36 90.65 341.38 90.62C341.4 90.59 341.42 90.56 341.45 90.54C341.47 90.52 341.5 90.5 341.53 90.49C341.57 90.47 341.6 90.47 341.64 90.47L344.2 90.47C344.23 90.46 344.26 90.47 344.29 90.48C344.32 90.5 344.34 90.52 344.36 90.54C344.38 90.56 344.4 90.59 344.4 90.62C344.41 90.65 344.41 90.68 344.4 90.71L343.6 94.66C343.58 94.78 343.54 94.98 343.51 95.12L343.43 95.58L343.35 96L343.34 96.04L343.3 96.25L343.29 96.3C342.93 97.96 342.73 99.17 344.48 99.17L346.25 99.17C346.28 99.17 346.32 99.16 346.35 99.15C346.38 99.14 346.41 99.12 346.44 99.1C346.47 99.08 346.49 99.05 346.51 99.02C346.53 98.99 346.54 98.96 346.55 98.92L347.44 94.82L348.33 90.71C348.34 90.68 348.35 90.65 348.37 90.62C348.39 90.59 348.41 90.56 348.44 90.54C348.47 90.52 348.5 90.5 348.53 90.49C348.56 90.47 348.6 90.47 348.63 90.47L351.13 90.47C351.16 90.47 351.19 90.47 351.22 90.48ZM361.11 99.2C361.14 99.2 361.17 99.2 361.2 99.22C361.22 99.23 361.25 99.25 361.27 99.27C361.29 99.3 361.3 99.32 361.31 99.35C361.31 99.38 361.31 99.42 361.31 99.45L361.06 100.63L361.11 99.2ZM360.82 101.82L361.06 100.63L360.82 101.82L360.82 101.82ZM360.52 102.07C360.52 102.07 360.51 102.07 360.5 102.07C360.51 102.07 360.52 102.07 360.52 102.07L360.52 102.07ZM360.5 102.07C360.27 102.07 357.84 102.09 355.91 102.09C357.56 102.09 359.75 102.08 360.5 102.07ZM354.42 97.67C354.42 97.67 354.25 98.73 354.39 97.31L354.71 97.31C354.57 97.31 354.42 97.54 354.42 97.67L354.42 97.67Z" />
					<path id="Path_4584" fill-rule="evenodd" class="shp0" d="M361.11 99.2C361.14 99.2 361.17 99.2 361.2 99.22C361.23 99.23 361.25 99.25 361.27 99.27C361.29 99.3 361.3 99.32 361.31 99.35C361.32 99.38 361.32 99.42 361.31 99.45L361.07 100.63L361.03 100.83M360.82 101.82L361.02 100.83L360.82 101.82L360.82 101.82ZM319.71 97.7C319.68 97.82 319.64 98.02 319.61 98.15L319.65 97.95L320.1 95.98L319.71 97.7L319.71 97.7ZM319.23 99.95L319.6 98.19C319.6 98.18 319.61 98.17 319.61 98.15L319.23 99.95ZM324.36 90.44C324.39 90.43 324.42 90.44 324.45 90.45C324.48 90.47 324.5 90.49 324.52 90.51C324.54 90.53 324.56 90.56 324.56 90.59C324.57 90.62 324.57 90.65 324.56 90.68L324.31 91.83L324.06 92.98C324.05 93.02 324.03 93.05 324.02 93.08C324 93.11 323.97 93.13 323.95 93.15C323.92 93.18 323.89 93.19 323.85 93.21C323.82 93.22 323.79 93.23 323.75 93.23L320.98 93.23C320.95 93.23 320.92 93.22 320.89 93.21C320.86 93.2 320.84 93.18 320.82 93.16C320.8 93.13 320.79 93.1 320.78 93.07C320.77 93.04 320.78 93.01 320.78 92.98L321.3 90.68C321.31 90.65 321.33 90.62 321.35 90.59C321.37 90.56 321.39 90.53 321.42 90.51C321.45 90.49 321.48 90.47 321.51 90.46C321.54 90.45 321.58 90.44 321.61 90.44L324.36 90.44L324.36 90.44ZM315.78 106.6C315.78 106.6 315.8 106.6 315.82 106.6C315.81 106.6 315.79 106.6 315.78 106.6L315.78 106.6ZM315.82 106.6C316.33 106.61 317.39 106.62 318.05 106.62C317.25 106.62 316.05 106.6 315.82 106.6ZM357.32 102.09L356.72 102.09L357.32 102.09ZM323.76 94.26L323.76 94.26L322.95 97.98L323.76 94.26ZM320.48 94.26L320.09 95.98L320.48 94.26Z" />
					<path id="Path_4585" fill-rule="evenodd" class="shp0" d="M323.56 94.01C323.6 94.01 323.63 94.02 323.65 94.03C323.68 94.04 323.71 94.06 323.73 94.09C323.75 94.11 323.76 94.14 323.77 94.17C323.77 94.2 323.77 94.23 323.76 94.26L322.96 97.98L322.1 101.96C321.37 105.42 320.22 106.62 318.05 106.62C317.39 106.62 316.28 106.61 315.79 106.6C315.76 106.6 315.73 106.6 315.7 106.58C315.67 106.57 315.65 106.55 315.63 106.53C315.61 106.5 315.6 106.48 315.59 106.44C315.58 106.41 315.59 106.38 315.59 106.35L316.17 103.94C316.18 103.91 316.19 103.88 316.21 103.85C316.23 103.82 316.26 103.79 316.28 103.77C316.31 103.75 316.34 103.73 316.38 103.72C316.41 103.71 316.44 103.7 316.48 103.7L317.23 103.72L317.34 103.72C318.21 103.73 318.73 102.19 318.73 102.19C318.78 102.03 318.82 101.87 318.86 101.71L319.61 98.19C319.63 98.06 319.68 97.84 319.71 97.7L320.1 95.98L320.49 94.26C320.5 94.22 320.51 94.19 320.53 94.16C320.55 94.13 320.58 94.11 320.6 94.08C320.63 94.06 320.66 94.04 320.69 94.03C320.73 94.02 320.76 94.01 320.8 94.01L323.56 94.01ZM362.87 101.95C362.84 101.95 362.81 101.95 362.78 101.93C362.75 101.92 362.73 101.9 362.71 101.88C362.69 101.85 362.68 101.83 362.67 101.8C362.66 101.77 362.66 101.73 362.67 101.7L364.75 91.95L362.87 101.95ZM365.76 101.7L366.61 97.54L365.76 101.7Z" />
					<path id="Path_4586" fill-rule="evenodd" class="shp0" d="M362.7 101.83C362.72 101.89 362.98 101.95 363.12 101.95L362.87 101.95C362.84 101.95 362.81 101.95 362.78 101.93C362.75 101.92 362.73 101.9 362.71 101.88C362.69 101.85 362.68 101.83 362.67 101.8C362.66 101.77 362.66 101.73 362.67 101.7L362.72 101.49C362.71 101.51 362.71 101.53 362.71 101.55C362.7 101.58 362.7 101.61 362.7 101.64C362.69 101.67 362.69 101.7 362.69 101.73C362.7 101.77 362.7 101.8 362.7 101.83ZM362.72 101.47L363.71 96.83L362.72 101.46C362.72 101.46 362.72 101.47 362.72 101.47ZM362.72 101.49C362.72 101.48 362.72 101.48 362.72 101.47L362.72 101.49ZM365.6 101.89C365.67 101.86 365.79 101.59 365.81 101.46L365.76 101.7C365.76 101.74 365.74 101.77 365.72 101.8C365.71 101.83 365.68 101.86 365.66 101.88C365.63 101.9 365.6 101.92 365.57 101.93C365.53 101.94 365.5 101.95 365.46 101.95L365.23 101.95C365.26 101.95 365.28 101.95 365.31 101.95C365.34 101.95 365.38 101.94 365.41 101.94C365.44 101.93 365.47 101.93 365.51 101.92C365.54 101.91 365.57 101.9 365.6 101.89L365.6 101.89ZM365.21 101.95L365.23 101.95C365.23 101.95 365.22 101.95 365.21 101.95ZM374.4 92.61L374.52 93.08C374.52 93.11 374.53 93.14 374.52 93.17C374.51 93.2 374.5 93.23 374.48 93.25C374.46 93.28 374.44 93.3 374.41 93.31C374.38 93.32 374.35 93.33 374.32 93.33L374.4 92.61ZM366.6 97.55C366.59 97.64 366.57 97.72 366.56 97.79L366.6 97.55ZM366.66 97.29L367.06 95.44L366.61 97.54L366.6 97.55C366.62 97.46 366.64 97.36 366.66 97.29ZM364.79 91.79C364.79 91.8 364.79 91.8 364.79 91.8L364.79 91.79ZM364.79 91.8L364.75 91.95L363.71 96.83L364.7 92.2C364.72 92.1 364.76 91.93 364.79 91.8ZM366.19 99.62L366.56 97.78L366.56 97.78L366.19 99.62ZM365.82 101.46L366.19 99.62L365.82 101.46ZM374.29 92.12L374.4 92.61L374.29 92.12Z" />
					<path id="Path_4587" class="shp0" d="M374.52 93.17C374.51 93.21 374.5 93.23 374.48 93.26C374.46 93.28 374.44 93.3 374.41 93.32C374.38 93.33 374.35 93.34 374.31 93.33L367.75 93.33C367.72 93.34 367.69 93.34 367.65 93.36C367.62 93.37 367.59 93.39 367.56 93.41C367.54 93.43 367.51 93.46 367.49 93.49C367.48 93.51 367.46 93.55 367.45 93.58L367.05 95.44L366.6 97.55L366.56 97.79L366.56 97.79L366.18 99.62L365.81 101.46C365.79 101.59 365.67 101.86 365.6 101.9C365.57 101.9 365.54 101.91 365.5 101.92C365.47 101.93 365.44 101.93 365.41 101.94C365.37 101.94 365.34 101.95 365.31 101.95C365.27 101.95 365.24 101.95 365.21 101.95L363.12 101.95C362.98 101.95 362.72 101.9 362.7 101.83C362.7 101.8 362.69 101.77 362.69 101.73C362.69 101.7 362.69 101.67 362.69 101.64C362.7 101.61 362.7 101.58 362.7 101.55C362.71 101.52 362.71 101.49 362.72 101.46L363.71 96.83L364.75 91.96L364.79 91.8L364.91 91.23L365.01 90.75L365.01 90.75C365.02 90.71 365.03 90.68 365.05 90.65C365.07 90.62 365.09 90.6 365.12 90.57C365.15 90.55 365.18 90.53 365.21 90.52C365.24 90.51 365.27 90.5 365.31 90.5L367.62 90.5L369.68 90.5L371.91 90.5C373.34 90.5 374 91 374.22 91.88L374.28 92.12L374.39 92.61L374.51 93.08C374.52 93.11 374.52 93.14 374.52 93.17Z" />
					<path id="Path_4588" fill-rule="evenodd" class="shp0" d="M382.96 88.8L383.75 88.79C383.89 88.79 383.93 88.88 383.85 88.99L376.31 98.99C376.29 99.02 376.26 99.06 376.24 99.1C376.22 99.13 376.2 99.17 376.18 99.21C376.17 99.24 376.15 99.28 376.13 99.32C376.12 99.36 376.11 99.4 376.09 99.44L375.51 101.7C375.5 101.74 375.49 101.77 375.47 101.8C375.45 101.83 375.42 101.86 375.39 101.88C375.37 101.9 375.33 101.92 375.3 101.93C375.27 101.94 375.23 101.95 375.2 101.95L372.25 101.95C372.22 101.95 372.19 101.95 372.16 101.93C372.13 101.92 372.11 101.9 372.09 101.88C372.07 101.85 372.06 101.83 372.05 101.8C372.05 101.77 372.05 101.73 372.06 101.7L372.64 99.44C372.65 99.4 372.65 99.36 372.66 99.32C372.66 99.27 372.66 99.23 372.66 99.19C372.66 99.15 372.66 99.11 372.66 99.07C372.65 99.03 372.64 98.99 372.63 98.95L371.29 94.26C371.28 94.24 371.28 94.21 371.29 94.18C371.29 94.15 371.3 94.12 371.32 94.09C371.34 94.07 371.36 94.05 371.39 94.04C371.42 94.02 371.45 94.02 371.48 94.02L374.46 94.02C374.5 94.02 374.53 94.03 374.57 94.04C374.6 94.05 374.63 94.07 374.66 94.09C374.69 94.12 374.71 94.14 374.73 94.17C374.75 94.2 374.76 94.23 374.77 94.27L375.11 95.77C375.15 95.91 375.24 95.92 375.31 95.8L379.96 89C379.98 88.97 380.01 88.95 380.04 88.92C380.07 88.9 380.1 88.87 380.13 88.86C380.17 88.84 380.2 88.82 380.24 88.81C380.28 88.8 380.32 88.8 380.36 88.8L382.96 88.8L382.96 88.8ZM358.13 90.3C362.73 90.3 363.03 93.02 361.96 97.07C361.96 97.08 361.96 97.08 361.96 97.09C361.96 97.09 361.95 97.1 361.95 97.1C361.95 97.11 361.95 97.11 361.95 97.12C361.95 97.12 361.95 97.13 361.94 97.13C361.93 97.16 361.92 97.18 361.9 97.21C361.88 97.23 361.86 97.25 361.84 97.27C361.82 97.28 361.79 97.29 361.76 97.3C361.74 97.31 361.71 97.32 361.68 97.32L354.45 97.32C354.25 98.72 354.79 99.2 356.59 99.2L361.11 99.2C361.14 99.2 361.17 99.21 361.19 99.22C361.22 99.23 361.25 99.25 361.27 99.28C361.29 99.3 361.3 99.33 361.31 99.36C361.31 99.39 361.31 99.42 361.3 99.45L361.06 100.63L361.02 100.83L360.82 101.82C360.81 101.86 360.8 101.89 360.78 101.92C360.76 101.95 360.74 101.98 360.71 102C360.69 102.02 360.66 102.04 360.62 102.05C360.59 102.06 360.56 102.07 360.52 102.07C359.98 102.08 358.65 102.09 357.32 102.09L355.91 102.09C350.89 102.09 350.83 99.26 351.48 96.22C352.12 93.25 353.27 90.3 358.13 90.3L358.13 90.3ZM359.24 94.67C359.34 93.81 359.04 93.05 357.48 93.05C357.22 93.02 356.95 93.04 356.69 93.1C356.43 93.16 356.19 93.27 355.96 93.41C355.74 93.56 355.54 93.74 355.38 93.95C355.21 94.15 355.09 94.39 355 94.64L354.98 94.7C354.98 94.71 354.98 94.72 354.98 94.72C354.98 94.72 354.98 94.72 354.98 94.72C354.98 94.72 354.98 94.72 354.98 94.72C354.98 94.72 354.98 94.72 354.98 94.72C354.98 94.73 354.98 94.73 354.98 94.73C354.98 94.75 354.98 94.78 354.98 94.8C354.99 94.83 355 94.85 355.02 94.87C355.04 94.89 355.06 94.91 355.08 94.92C355.11 94.93 355.13 94.93 355.16 94.93L358.95 94.93C358.98 94.93 359.02 94.92 359.05 94.91C359.08 94.89 359.12 94.88 359.14 94.85C359.17 94.83 359.19 94.8 359.21 94.77C359.23 94.74 359.24 94.7 359.24 94.67L359.24 94.67ZM337.15 98.86C337.15 98.86 337.15 98.87 337.15 98.87C337.15 98.88 337.15 98.88 337.14 98.89C337.14 98.89 337.14 98.89 337.14 98.9C337.14 98.9 337.14 98.91 337.14 98.91C337.13 98.94 337.14 98.96 337.14 98.99C337.15 99.01 337.16 99.03 337.18 99.05C337.2 99.06 337.22 99.08 337.24 99.09C337.26 99.09 337.29 99.1 337.31 99.09L338.51 99.09C338.54 99.09 338.57 99.1 338.6 99.11C338.63 99.12 338.65 99.14 338.67 99.17C338.69 99.19 338.7 99.22 338.7 99.25C338.71 99.28 338.71 99.31 338.7 99.34L338.07 101.73C338.06 101.77 338.04 101.8 338.02 101.83C338 101.86 337.98 101.88 337.95 101.91C337.92 101.93 337.89 101.94 337.86 101.96C337.82 101.97 337.79 101.98 337.75 101.98L334.15 101.99L330.3 102C325.41 102.03 324.35 98.63 325.16 94.76C325.97 90.91 328.11 87.38 333.02 87.38C337.96 87.38 339.24 91.08 338.82 93.64C338.72 94.08 338.61 94.53 338.49 94.97C338.37 95.41 338.24 95.84 338.1 96.28C337.96 96.71 337.81 97.15 337.65 97.58C337.49 98 337.33 98.43 337.15 98.85L337.15 98.86ZM335.17 94.65C335.88 92.26 335.29 90.19 332.35 90.41C330.19 90.57 329.15 92.18 328.61 94.76C328.08 97.29 328.61 99 330.8 99L333.69 99C333.73 99 333.76 98.99 333.8 98.98C333.83 98.97 333.86 98.95 333.89 98.93C333.92 98.91 333.94 98.88 333.96 98.85C333.98 98.83 334 98.79 334.01 98.76L334.56 96.83L335.1 94.89L335.17 94.65L335.17 94.65Z" />
					<path id="Path_4589" class="shp0" d="M361.48 96.64C361.48 96.71 361.44 96.77 361.38 96.79C361.31 96.82 361.24 96.81 361.2 96.76C361.15 96.71 361.13 96.64 361.16 96.58C361.19 96.52 361.25 96.47 361.31 96.47C361.33 96.47 361.36 96.48 361.38 96.49C361.4 96.5 361.41 96.51 361.43 96.52C361.45 96.54 361.46 96.56 361.47 96.58C361.47 96.6 361.48 96.62 361.48 96.64Z" />
					<path id="Path_4590" class="shp0" d="M300.68 91C300.42 91.58 300.23 92.19 300.13 92.81C300.03 93.44 300.02 94.07 300.09 94.7C300.17 95.33 300.33 95.95 300.57 96.53C300.81 97.12 301.13 97.67 301.52 98.16C301.57 98.24 301.63 98.31 301.68 98.38L301.74 98.45C301.78 98.51 301.83 98.57 301.88 98.63L301.93 98.69C302 98.77 302.07 98.84 302.13 98.92L302.14 98.93C302.21 99 302.28 99.07 302.34 99.13L302.4 99.2C302.46 99.25 302.51 99.3 302.56 99.35L302.63 99.41C302.7 99.48 302.78 99.55 302.85 99.61L302.87 99.63C302.93 99.69 303 99.75 303.09 99.81C303.17 99.88 303.25 99.94 303.33 100.01L303.42 100.07C303.48 100.12 303.54 100.16 303.61 100.21L303.67 100.25C303.74 100.3 303.8 100.34 303.87 100.38L303.94 100.43C304.04 100.49 304.13 100.55 304.23 100.61L304.3 100.65C304.37 100.69 304.44 100.73 304.51 100.77C304.55 100.79 304.59 100.81 304.63 100.83C304.69 100.86 304.75 100.89 304.81 100.92C304.91 100.97 305.01 101.02 305.11 101.06L305.17 101.09C305.26 101.13 305.35 101.17 305.44 101.21L305.51 101.23C305.6 101.27 305.68 101.3 305.77 101.33L305.81 101.34C305.93 101.39 306.05 101.42 306.17 101.46C306.27 101.49 306.37 101.52 306.47 101.54C309.17 102.16 312.01 101.61 313.61 99.52C313.61 99.52 311.7 104.66 305.14 103.46C305.12 103.46 305.09 103.45 305.07 103.45C305.04 103.44 305.01 103.43 304.99 103.43C304.96 103.42 304.94 103.41 304.92 103.4C304.89 103.4 304.87 103.39 304.84 103.38L304.77 103.36C304.67 103.32 304.58 103.29 304.48 103.26C304.38 103.22 304.27 103.19 304.18 103.15L304.11 103.12C304.02 103.09 303.93 103.05 303.83 103.01C303.73 102.96 303.64 102.92 303.54 102.87L303.48 102.84L303.44 102.83C303.39 102.8 303.34 102.77 303.29 102.75L303.18 102.69C303.11 102.65 303.04 102.61 302.97 102.57L302.89 102.53C302.8 102.47 302.7 102.41 302.61 102.35L302.53 102.3C302.47 102.26 302.41 102.22 302.35 102.18L302.34 102.17L302.27 102.12C302.21 102.08 302.15 102.04 302.08 101.99L302 101.92C301.94 101.88 301.89 101.84 301.83 101.8L301.75 101.73C301.68 101.68 301.62 101.62 301.55 101.56L301.51 101.53C301.44 101.47 301.37 101.4 301.29 101.33L301.23 101.27C301.08 101.13 300.94 100.99 300.81 100.84L300.8 100.83C300.73 100.76 300.66 100.69 300.6 100.61C300.54 100.53 300.47 100.45 300.41 100.37L300.35 100.3C300.3 100.23 300.25 100.17 300.2 100.1L300.17 100.06L300.17 100.05C300.11 99.98 300.06 99.9 300 99.81C299.99 99.79 299.97 99.76 299.95 99.74C299.92 99.68 299.88 99.62 299.84 99.56L299.78 99.47C299.75 99.41 299.72 99.35 299.68 99.3C299.67 99.26 299.65 99.23 299.63 99.2C299.62 99.18 299.62 99.17 299.6 99.14C299.58 99.11 299.57 99.08 299.55 99.05C299.53 99 299.5 98.95 299.48 98.9C299.19 98.4 298.98 97.86 298.84 97.31C298.7 96.75 298.64 96.18 298.65 95.6C298.67 95.03 298.76 94.46 298.92 93.91C299.09 93.36 299.32 92.83 299.63 92.34" />
					<path id="Path_4591" class="shp0" d="M304.64 89.58C304.49 89.85 304.36 90.14 304.27 90.45C304.17 90.75 304.11 91.06 304.08 91.37C304.05 91.69 304.05 92.01 304.08 92.32C304.12 92.64 304.19 92.95 304.28 93.25C304.38 93.54 304.49 93.82 304.63 94.09C304.77 94.37 304.92 94.63 305.1 94.88C305.27 95.13 305.47 95.36 305.68 95.58C305.89 95.8 306.11 96.01 306.35 96.2L306.42 96.24C306.51 96.31 306.6 96.38 306.69 96.44L306.82 96.53L306.88 96.57C306.95 96.62 307.02 96.66 307.08 96.7L307.12 96.72C307.18 96.75 307.23 96.78 307.29 96.81L307.37 96.85C307.41 96.88 307.46 96.9 307.5 96.92C307.59 96.97 307.68 97.01 307.76 97.04L307.82 97.07C307.89 97.1 307.97 97.13 308.04 97.16C308.13 97.19 308.23 97.22 308.33 97.26C308.45 97.3 308.58 97.33 308.7 97.37C309.17 97.52 309.66 97.59 310.15 97.59C310.65 97.59 311.14 97.51 311.61 97.36C312.08 97.21 312.52 96.99 312.92 96.71C313.32 96.43 313.68 96.08 313.98 95.69C313.98 95.69 312.81 99.59 307.74 98.75C307.72 98.75 307.69 98.74 307.67 98.73C307.65 98.73 307.62 98.72 307.6 98.72C307.57 98.71 307.55 98.7 307.53 98.69C307.5 98.69 307.48 98.68 307.46 98.67L307.37 98.64C307.3 98.62 307.23 98.59 307.17 98.57L307.07 98.54C307 98.51 306.93 98.48 306.86 98.45L306.8 98.43C306.71 98.39 306.62 98.35 306.54 98.3L306.52 98.3L306.39 98.23L306.33 98.2C306.27 98.16 306.21 98.13 306.15 98.1L306.12 98.08C306.06 98.04 305.99 98 305.92 97.95C305.9 97.94 305.88 97.93 305.86 97.92C305.82 97.89 305.78 97.86 305.74 97.83L305.73 97.83C305.63 97.76 305.54 97.7 305.45 97.63L305.39 97.58C305.3 97.51 305.21 97.44 305.13 97.36L305.13 97.36L305.12 97.35C305.04 97.29 304.97 97.22 304.89 97.15L304.84 97.09C304.76 97.01 304.69 96.94 304.62 96.86C304.57 96.81 304.52 96.76 304.48 96.71C304.43 96.66 304.39 96.61 304.35 96.56C304.3 96.51 304.26 96.45 304.22 96.4C304.19 96.34 304.15 96.29 304.11 96.23C304.07 96.17 304.03 96.11 303.99 96.05C303.96 95.99 303.92 95.93 303.88 95.87C303.85 95.81 303.81 95.75 303.78 95.69C303.74 95.63 303.71 95.57 303.68 95.5C303.48 95.14 303.32 94.74 303.23 94.33C303.13 93.92 303.09 93.5 303.1 93.08C303.12 92.66 303.19 92.25 303.31 91.84C303.44 91.44 303.61 91.06 303.84 90.7" />
					<path id="Path_4592" class="shp0" d="M307.81 88.88C307.65 89.23 307.56 89.62 307.53 90.01C307.5 90.4 307.55 90.79 307.65 91.17C307.76 91.54 307.93 91.9 308.16 92.22C308.39 92.53 308.68 92.81 309 93.03C309.08 93.09 309.17 93.15 309.25 93.2C309.34 93.26 309.43 93.31 309.52 93.36C309.61 93.41 309.7 93.46 309.8 93.5C309.89 93.54 309.99 93.58 310.08 93.61C310.19 93.65 310.3 93.69 310.41 93.72C310.69 93.82 310.97 93.88 311.27 93.9C311.56 93.92 311.85 93.88 312.13 93.81C312.41 93.73 312.68 93.61 312.93 93.45C313.17 93.29 313.39 93.09 313.57 92.86C313.41 93.21 313.2 93.52 312.93 93.79C312.67 94.06 312.36 94.28 312.01 94.43C311.67 94.59 311.3 94.69 310.93 94.71C310.55 94.74 310.17 94.7 309.81 94.59C309.79 94.58 309.78 94.58 309.76 94.58C309.75 94.57 309.73 94.57 309.72 94.56C309.7 94.56 309.69 94.55 309.67 94.55C309.66 94.55 309.64 94.54 309.63 94.53L309.57 94.52C309.53 94.5 309.49 94.49 309.45 94.47C309.19 94.38 308.95 94.26 308.72 94.12C308.49 93.98 308.27 93.82 308.08 93.63C307.88 93.45 307.7 93.24 307.55 93.02C307.39 92.8 307.26 92.57 307.15 92.32C307.04 92.09 306.97 91.86 306.93 91.61C306.89 91.37 306.88 91.12 306.9 90.87C306.92 90.62 306.97 90.37 307.05 90.14C307.13 89.9 307.24 89.68 307.38 89.47" />
				</g>
			</g>
		</g>
	</g>
</svg>