<svg version="1.2" baseProfile="tiny-ps" xmlns="http://www.w3.org/2000/svg" viewBox="0 0 475 450" width="475" height="450">
	<title>vi-5-svg</title>
	<defs>
		<clipPath clipPathUnits="userSpaceOnUse" id="cp1">
			<path d="M0 0L475 0L475 450L0 450L0 0Z" />
		</clipPath>
	</defs>
	<style>
		tspan { white-space:pre }
		.shp0 { opacity: 0.302;fill: #34dce7 } 
		.shp1 { opacity: 0.659;fill: #34dce7 } 
		.shp2 { fill: #2a5fd1 } 
		.shp3 { fill: #34dce7 } 
		.shp4 { fill: none;stroke: #34fbe7;stroke-linecap:round;stroke-linejoin:round } 
		.shp5 { fill: #2753cc } 
	</style>
	<g id="Clip-Path: laptop_1" clip-path="url(#cp1)">
		<g id="laptop_1">
			<g id="banner-image">
				<g id="Group_47">
					<path id="Rectangle_77" class="shp0" d="M38 64.89L215.99 64.89L215.99 165.97C215.99 166.95 215.8 167.93 215.42 168.84C215.04 169.75 214.49 170.58 213.79 171.28C213.09 171.98 212.26 172.53 211.35 172.91C210.44 173.29 209.46 173.48 208.47 173.48L45.52 173.48C44.53 173.48 43.55 173.29 42.64 172.91C41.73 172.53 40.9 171.98 40.2 171.28C39.5 170.58 38.95 169.75 38.57 168.84C38.19 167.93 38 166.95 38 165.97L38 64.89Z" />
					<path id="Rectangle_78" class="shp0" d="M53.68 87.34L148.46 87.34L148.46 121.36L53.68 121.36L53.68 87.34Z" />
					<path id="Rectangle_79" class="shp0" d="M53.91 128.07L87.24 128.07L87.24 138.63L53.91 138.63L53.91 128.07Z" />
					<path id="Rectangle_80" class="shp0" d="M92.24 128.07L148.69 128.07L148.69 138.63L92.24 138.63L92.24 128.07Z" />
					<path id="Rectangle_81" class="shp0" d="M154.98 87.71L206.57 87.71L206.57 102.44L154.98 102.44L154.98 87.71Z" />
					<path id="Rectangle_82" class="shp0" d="M53.91 144.97L206.57 144.97L206.57 159.7L53.91 159.7L53.91 144.97Z" />
					<path id="Rectangle_83" class="shp0" d="M154.98 106.29L206.57 106.29L206.57 139.81L154.98 139.81L154.98 106.29Z" />
					<path id="Rectangle_84" class="shp0" d="M38 64.89L215.99 64.89L215.99 82.64L38 82.64L38 64.89Z" />
					<path id="Rectangle_85" class="shp1" d="M38 82.3L215.99 82.3L215.99 82.64L38 82.64L38 82.3Z" />
					<path id="Ellipse_15" class="shp2" d="M45.15 76.24C43.54 76.24 42.23 74.93 42.23 73.32C42.23 71.7 43.54 70.4 45.15 70.4C46.77 70.4 48.07 71.7 48.07 73.32C48.07 74.93 46.77 76.24 45.15 76.24Z" />
					<path id="Ellipse_16" class="shp2" d="M53.91 76.24C52.3 76.24 50.99 74.93 50.99 73.32C50.99 71.7 52.3 70.4 53.91 70.4C55.52 70.4 56.83 71.7 56.83 73.32C56.83 74.93 55.52 76.24 53.91 76.24Z" />
					<path id="Ellipse_17" class="shp2" d="M62.6 76.24C60.99 76.24 59.68 74.93 59.68 73.32C59.68 71.7 60.99 70.4 62.6 70.4C64.22 70.4 65.52 71.7 65.52 73.32C65.52 74.93 64.22 76.24 62.6 76.24Z" />
					<path id="Rectangle_86" class="shp0" d="M42.23 87.63C42.23 86.28 43.33 85.18 44.68 85.18L45.62 85.18C46.97 85.18 48.07 86.28 48.07 87.63L48.07 164.01C48.07 165.37 46.97 166.46 45.62 166.46L44.68 166.46C43.33 166.46 42.23 165.37 42.23 164.01L42.23 87.63Z" />
					<path id="Rectangle_87" class="shp3" d="M43.78 88.69C43.78 88.15 44.22 87.71 44.76 87.71L45.13 87.71C45.67 87.71 46.11 88.15 46.11 88.69L46.11 108.06C46.11 108.6 45.67 109.04 45.13 109.04L44.76 109.04C44.22 109.04 43.78 108.6 43.78 108.06L43.78 88.69Z" />
					<path id="Line_14" class="shp4" d="M83.64 130.51L72.46 130.51" />
					<path id="Line_15" class="shp4" d="M82.59 135.43L56.8 135.43" />
					<path id="Line_16" class="shp4" d="M95.12 130.51L99.74 130.51" />
					<path id="Line_17" class="shp4" d="M103.54 130.51L108.16 130.51" />
					<path id="Line_18" class="shp4" d="M111.96 130.51L116.58 130.51" />
					<path id="Line_19" class="shp4" d="M120.39 130.51L125.01 130.51" />
					<path id="Line_20" class="shp4" d="M128.81 130.51L133.43 130.51" />
					<path id="Line_21" class="shp4" d="M137.23 130.51L141.85 130.51" />
					<path id="Line_22" class="shp4" d="M95.12 134.1L98.1 134.1" />
					<path id="Line_23" class="shp4" d="M102.05 134.1L105.03 134.1" />
					<path id="Line_24" class="shp4" d="M108.98 134.1L111.96 134.1" />
					<path id="Line_25" class="shp4" d="M115.91 134.1L118.9 134.1" />
					<path id="Line_26" class="shp4" d="M122.85 134.1L125.83 134.1" />
					<path id="Line_27" class="shp4" d="M129.78 134.1L132.76 134.1" />
					<path id="Line_28" class="shp4" d="M136.71 134.1L139.69 134.1" />
					<path id="Path_59" class="shp4" d="M60.32 155.17L57.17 152.02L60.45 148.73" />
					<path id="Path_60" class="shp4" d="M63.6 155.17L60.45 152.02L63.73 148.73" />
					<path id="Path_61" class="shp4" d="M163.47 98.29L160.32 95.14L163.6 91.86" />
					<path id="Line_29" class="shp4" d="M158.67 110.11L184.65 110.11" />
					<path id="Line_30" class="shp4" d="M158.67 113.29L168.88 113.29" />
					<path id="Line_31" class="shp4" d="M158.67 118.28L168.88 118.28" />
					<path id="Line_32" class="shp4" d="M158.67 123.28L168.88 123.28" />
					<path id="Line_33" class="shp4" d="M158.67 128.27L168.88 128.27" />
					<path id="Line_34" class="shp4" d="M199.18 116.35L192.26 116.35" />
					<path id="Line_35" class="shp4" d="M199.18 119.19L192.26 119.19" />
					<path id="Line_36" class="shp4" d="M199.18 122.03L192.26 122.03" />
					<path id="Line_37" class="shp4" d="M199.18 124.86L192.26 124.86" />
					<path id="Line_38" class="shp4" d="M199.18 127.7L192.26 127.7" />
					<path id="Line_39" class="shp4" d="M199.18 130.54L192.26 130.54" />
					<path id="Line_40" class="shp4" d="M199.18 133.38L192.26 133.38" />
					<path id="Line_41" class="shp4" d="M199.18 136.22L192.26 136.22" />
					<path id="Line_42" class="shp4" d="M71.86 148.73L141.85 148.73" />
					<path id="Line_43" class="shp4" d="M71.86 151.95L114.27 151.95" />
					<path id="Line_44" class="shp4" d="M71.86 156.48L114.27 156.48" />
					<g id="Group_2130">
						<g id="css-3_1_">
							<g id="Group_2124">
								<path id="Path_4573" fill-rule="evenodd" class="shp5" d="M161.9 104.46L158.37 144.31L142.53 148.73L126.69 144.31L123.16 104.46L161.9 104.46ZM154.8 112.6L130.27 112.6L130.59 117.22L149.52 117.17L149.15 122.13L131.07 122.34L131.56 126.98L148.74 126.94L148 133.72L142.53 135.19L142.53 135.2L137.07 133.72L136.71 129.65L131.8 129.65L132.5 137.5L142.53 140.28L142.53 140.28L152.57 137.5L153.92 122.49L154.36 117.49L154.8 112.6Z" />
							</g>
						</g>
						<path id="html-5" fill-rule="evenodd" class="shp5" d="M75.38 74.76C75.37 74.58 75.39 74.39 75.45 74.21C75.51 74.04 75.61 73.88 75.74 73.74C75.86 73.6 76.02 73.49 76.19 73.42C76.36 73.34 76.55 73.3 76.73 73.3L112.59 73.3C112.77 73.3 112.96 73.34 113.13 73.42C113.3 73.49 113.46 73.6 113.58 73.74C113.71 73.87 113.81 74.04 113.87 74.21C113.93 74.39 113.95 74.58 113.94 74.76L111.08 111.39C111.06 111.52 111.03 111.66 110.99 111.78C110.94 111.91 110.87 112.02 110.79 112.13C110.7 112.23 110.6 112.32 110.49 112.4C110.38 112.48 110.26 112.54 110.13 112.58L95.07 117.35C95 117.37 94.94 117.39 94.87 117.4C94.8 117.41 94.73 117.42 94.66 117.42C94.59 117.42 94.52 117.41 94.45 117.4C94.38 117.39 94.32 117.37 94.25 117.35L79.19 112.58C79.06 112.54 78.94 112.48 78.83 112.4C78.72 112.32 78.62 112.23 78.53 112.13C78.45 112.02 78.38 111.9 78.33 111.78C78.29 111.66 78.26 111.52 78.25 111.39L75.38 74.76ZM106.97 81.37L82.35 81.37L83.51 96.13L100.89 96.13L100.45 102.18L94.81 103.7L89.13 102.18L89.13 98.39L83.68 98.39L84.28 106.12L94.66 109.41L105.03 106.12L106.19 91.32L88.5 91.32L87.94 86.13L106.6 86.13L106.97 81.37Z" />
					</g>
				</g>
			</g>
		</g>
	</g>
</svg>