<svg version="1.2" baseProfile="tiny-ps" xmlns="http://www.w3.org/2000/svg" viewBox="0 0 475 450" width="475" height="450">
	<title>vi-5-svg</title>
	<defs>
		<clipPath clipPathUnits="userSpaceOnUse" id="cp1">
			<path d="M0 0L475 0L475 450L0 450L0 0Z" />
		</clipPath>
	</defs>
	<style>
		tspan { white-space:pre }
		.shp0 { opacity: 0.2;fill: #34dce7 } 
		.shp1 { opacity: 0.102;fill: #34dce7 } 
		.shp2 { fill: #224dc2 } 
		.shp3 { fill: #1f4489 } 
		.shp4 { fill: #479ee8 } 
		.shp5 { fill: #2a5fd1 } 
		.shp6 { fill: #4795fa } 
		.shp7 { fill: #34c6e7 } 
		.shp8 { fill: #34dce7 } 
		.shp9 { fill: #2d61f0 } 
		.shp10 { opacity: 0.302;fill: #34dce7 } 
		.shp11 { opacity: 0.659;fill: #34dce7 } 
		.shp12 { fill: none;stroke: #34fbe7;stroke-linecap:round;stroke-linejoin:round } 
		.shp13 { fill: #dbff0e } 
		.shp14 { fill: #ff2995 } 
		.shp15 { fill: #34fbe7 } 
	</style>
	<g id="Clip-Path: laptop_1" clip-path="url(#cp1)">
		<g id="laptop_1">
			<g id="banner-image">
				<path id="Ellipse_1" class="shp0" d="M242.29 443.5C183.08 443.5 135.23 429.15 135.23 411.4C135.23 393.64 183.08 379.29 242.29 379.29C301.49 379.29 349.35 393.64 349.35 411.4C349.35 429.15 301.49 443.5 242.29 443.5Z" />
				<path id="Ellipse_2" class="shp1" d="M242.45 426.47C199.14 426.47 164.13 415.97 164.13 402.98C164.13 389.99 199.14 379.49 242.45 379.49C285.77 379.49 320.78 389.99 320.78 402.98C320.78 415.97 285.77 426.47 242.45 426.47Z" />
				<path id="Ellipse_3" class="shp1" d="M242.53 418.88C210.1 418.88 183.88 411.02 183.88 401.3C183.88 391.57 210.1 383.71 242.53 383.71C274.97 383.71 301.19 391.57 301.19 401.3C301.19 411.02 274.97 418.88 242.53 418.88Z" />
				<path id="Rectangle_2" class="shp2" d="M97.5 264.31L378.38 264.31L378.38 271.3L97.5 271.3L97.5 264.31Z" />
				<path id="Rectangle_3" class="shp2" d="M132.38 116.04C132.38 113.25 134.64 110.99 137.43 110.99L342.28 110.99C345.07 110.99 347.33 113.25 347.33 116.04L347.33 252.47C347.33 255.26 345.07 257.52 342.28 257.52L137.43 257.52C134.64 257.52 132.38 255.26 132.38 252.47L132.38 116.04Z" />
				<path id="Path_1" class="shp3" d="M341.31 111.6C342.1 111.6 342.88 111.75 343.61 112.05C344.34 112.36 345 112.8 345.56 113.36C346.12 113.92 346.57 114.58 346.87 115.31C347.17 116.04 347.33 116.82 347.33 117.61L347.33 243.13L132.38 243.13L132.38 117.62C132.38 116.83 132.53 116.04 132.84 115.31C133.14 114.58 133.58 113.92 134.14 113.36C134.7 112.8 135.37 112.36 136.1 112.05C136.83 111.75 137.61 111.6 138.4 111.6L341.31 111.6L341.31 111.6Z" />
				<path id="Path_2" class="shp4" d="M343.61 115.59C344.34 115.89 345.01 116.34 345.56 116.9C346.12 117.46 346.57 118.12 346.87 118.85C347.17 119.58 347.33 120.37 347.33 121.16L347.33 121.59C347.33 120.8 347.17 120.02 346.87 119.29C346.57 118.55 346.12 117.89 345.56 117.33C345.01 116.77 344.34 116.33 343.61 116.03C342.88 115.72 342.1 115.57 341.31 115.57L138.4 115.57C137.61 115.57 136.83 115.72 136.1 116.03C135.37 116.33 134.7 116.77 134.14 117.33C133.58 117.89 133.14 118.55 132.84 119.29C132.53 120.02 132.38 120.8 132.38 121.59L132.38 121.16C132.38 120.37 132.53 119.58 132.84 118.85C133.14 118.12 133.58 117.46 134.14 116.9C134.7 116.34 135.37 115.89 136.1 115.59C136.83 115.29 137.61 115.13 138.4 115.13L341.31 115.13C342.1 115.13 342.88 115.29 343.61 115.59Z" />
				<path id="Path_4598" class="shp5" d="M140.76 120.36L339 120.36L339 237.7L140.76 237.7L140.76 120.36Z" />
				<g id="Group_1">
					<path id="Rectangle_5" class="shp6" d="M167.14 136.72C167.14 136.08 167.66 135.56 168.3 135.56L280.88 135.56C281.52 135.56 282.04 136.08 282.04 136.72L282.04 137.17C282.04 137.81 281.52 138.33 280.88 138.33L168.3 138.33C167.66 138.33 167.14 137.81 167.14 137.17L167.14 136.72Z" />
					<path id="Rectangle_6" class="shp6" d="M147.68 127.79C147.68 126.97 148.34 126.3 149.17 126.3L221.15 126.3C221.98 126.3 222.64 126.97 222.64 127.79L222.64 128.37C222.64 129.19 221.98 129.86 221.15 129.86L149.17 129.86C148.34 129.86 147.68 129.19 147.68 128.37L147.68 127.79Z" />
					<path id="Rectangle_7" class="shp6" d="M147.68 136.72C147.68 136.08 148.2 135.56 148.84 135.56L156.49 135.56C157.13 135.56 157.65 136.08 157.65 136.72L157.65 137.17C157.65 137.81 157.13 138.33 156.49 138.33L148.84 138.33C148.2 138.33 147.68 137.81 147.68 137.17L147.68 136.72Z" />
					<path id="Rectangle_8" class="shp6" d="M148.84 144.94C148.84 144.54 149.16 144.21 149.56 144.21L207.58 144.21C207.97 144.21 208.3 144.54 208.3 144.94L208.3 145.21C208.3 145.61 207.97 145.94 207.58 145.94L149.56 145.94C149.16 145.94 148.84 145.61 148.84 145.21L148.84 144.94Z" />
					<path id="Rectangle_9" class="shp6" d="M148.84 151.96C148.84 151.56 149.16 151.23 149.56 151.23L207.58 151.23C207.97 151.23 208.3 151.56 208.3 151.96L208.3 152.23C208.3 152.63 207.97 152.96 207.58 152.96L149.56 152.96C149.16 152.96 148.84 152.63 148.84 152.23L148.84 151.96Z" />
					<path id="Rectangle_10" class="shp6" d="M148.84 158.98C148.84 158.58 149.16 158.25 149.56 158.25L207.58 158.25C207.97 158.25 208.3 158.58 208.3 158.98L208.3 159.25C208.3 159.65 207.97 159.98 207.58 159.98L149.56 159.98C149.16 159.98 148.84 159.65 148.84 159.25L148.84 158.98Z" />
					<path id="Rectangle_11" class="shp6" d="M148.84 166C148.84 165.6 149.16 165.27 149.56 165.27L207.58 165.27C207.97 165.27 208.3 165.6 208.3 166L208.3 166.27C208.3 166.67 207.97 167 207.58 167L149.56 167C149.16 167 148.84 166.67 148.84 166.27L148.84 166Z" />
					<path id="Rectangle_12" class="shp6" d="M148.84 173.02C148.84 172.62 149.16 172.29 149.56 172.29L158.65 172.29C159.05 172.29 159.37 172.62 159.37 173.02L159.37 173.29C159.37 173.69 159.05 174.02 158.65 174.02L149.56 174.02C149.16 174.02 148.84 173.69 148.84 173.29L148.84 173.02Z" />
					<path id="Rectangle_13" class="shp6" d="M164.22 173.02C164.22 172.62 164.54 172.29 164.94 172.29L174.02 172.29C174.42 172.29 174.75 172.62 174.75 173.02L174.75 173.29C174.75 173.69 174.42 174.02 174.02 174.02L164.94 174.02C164.54 174.02 164.22 173.69 164.22 173.29L164.22 173.02Z" />
					<path id="Rectangle_14" class="shp6" d="M179.59 173.02C179.59 172.62 179.91 172.29 180.31 172.29L189.4 172.29C189.8 172.29 190.12 172.62 190.12 173.02L190.12 173.29C190.12 173.69 189.8 174.02 189.4 174.02L180.31 174.02C179.91 174.02 179.59 173.69 179.59 173.29L179.59 173.02Z" />
					<path id="Rectangle_15" class="shp6" d="M194.97 173.02C194.97 172.62 195.29 172.29 195.69 172.29L204.78 172.29C205.18 172.29 205.5 172.62 205.5 173.02L205.5 173.29C205.5 173.69 205.18 174.02 204.78 174.02L195.69 174.02C195.29 174.02 194.97 173.69 194.97 173.29L194.97 173.02Z" />
					<path id="Rectangle_16" class="shp6" d="M210.34 173.02C210.34 172.62 210.67 172.29 211.07 172.29L220.15 172.29C220.55 172.29 220.87 172.62 220.87 173.02L220.87 173.29C220.87 173.69 220.55 174.02 220.15 174.02L211.07 174.02C210.67 174.02 210.34 173.69 210.34 173.29L210.34 173.02Z" />
					<path id="Rectangle_17" class="shp6" d="M225.72 173.02C225.72 172.62 226.04 172.29 226.44 172.29L235.53 172.29C235.93 172.29 236.25 172.62 236.25 173.02L236.25 173.29C236.25 173.69 235.93 174.02 235.53 174.02L226.44 174.02C226.04 174.02 225.72 173.69 225.72 173.29L225.72 173.02Z" />
					<path id="Rectangle_18" class="shp6" d="M148.84 180.04C148.84 179.64 149.16 179.31 149.56 179.31L207.58 179.31C207.97 179.31 208.3 179.64 208.3 180.04L208.3 180.31C208.3 180.71 207.97 181.04 207.58 181.04L149.56 181.04C149.16 181.04 148.84 180.71 148.84 180.31L148.84 180.04Z" />
					<path id="Rectangle_19" class="shp6" d="M254.15 156.3C254.15 155.74 254.6 155.29 255.16 155.29L326.36 155.29C326.92 155.29 327.37 155.74 327.37 156.3L327.37 156.69C327.37 157.24 326.92 157.69 326.36 157.69L255.16 157.69C254.6 157.69 254.15 157.24 254.15 156.69L254.15 156.3Z" />
					<path id="Rectangle_20" class="shp6" d="M254.15 166.8C254.15 166.25 254.6 165.8 255.16 165.8L326.36 165.8C326.92 165.8 327.37 166.25 327.37 166.8L327.37 167.19C327.37 167.75 326.92 168.2 326.36 168.2L255.16 168.2C254.6 168.2 254.15 167.75 254.15 167.19L254.15 166.8Z" />
					<path id="Rectangle_21" class="shp6" d="M254.15 176.64C254.15 176.08 254.6 175.63 255.16 175.63L326.36 175.63C326.92 175.63 327.37 176.08 327.37 176.64L327.37 177.03C327.37 177.58 326.92 178.03 326.36 178.03L255.16 178.03C254.6 178.03 254.15 177.58 254.15 177.03L254.15 176.64Z" />
					<path id="Rectangle_22" class="shp6" d="M254.15 186.48C254.15 185.92 254.6 185.47 255.16 185.47L326.36 185.47C326.92 185.47 327.37 185.92 327.37 186.48L327.37 186.86C327.37 187.42 326.92 187.87 326.36 187.87L255.16 187.87C254.6 187.87 254.15 187.42 254.15 186.86L254.15 186.48Z" />
					<path id="Rectangle_23" class="shp6" d="M254.15 196.31C254.15 195.76 254.6 195.31 255.16 195.31L326.36 195.31C326.92 195.31 327.37 195.76 327.37 196.31L327.37 196.7C327.37 197.26 326.92 197.71 326.36 197.71L255.16 197.71C254.6 197.71 254.15 197.26 254.15 196.7L254.15 196.31Z" />
					<path id="Rectangle_24" class="shp6" d="M254.15 206.15C254.15 205.59 254.6 205.14 255.16 205.14L291.93 205.14C292.49 205.14 292.94 205.59 292.94 206.15L292.94 206.54C292.94 207.09 292.49 207.54 291.93 207.54L255.16 207.54C254.6 207.54 254.15 207.09 254.15 206.54L254.15 206.15Z" />
					<path id="Rectangle_25" class="shp6" d="M277.94 212.85C277.94 212.29 278.39 211.84 278.95 211.84L315.72 211.84C316.28 211.84 316.73 212.29 316.73 212.85L316.73 213.23C316.73 213.79 316.28 214.24 315.72 214.24L278.95 214.24C278.39 214.24 277.94 213.79 277.94 213.23L277.94 212.85Z" />
					<path id="Rectangle_26" class="shp6" d="M277.94 219.78C277.94 219.22 278.39 218.77 278.95 218.77L315.72 218.77C316.28 218.77 316.73 219.22 316.73 219.78L316.73 220.17C316.73 220.72 316.28 221.17 315.72 221.17L278.95 221.17C278.39 221.17 277.94 220.72 277.94 220.17L277.94 219.78Z" />
					<path id="Rectangle_27" class="shp6" d="M157.46 219.78C157.46 219.22 157.91 218.77 158.46 218.77L175.81 218.77C176.37 218.77 176.82 219.22 176.82 219.78L176.82 220.17C176.82 220.72 176.37 221.17 175.81 221.17L158.46 221.17C157.91 221.17 157.46 220.72 157.46 220.17L157.46 219.78Z" />
					<path id="Rectangle_28" class="shp6" d="M157.46 214.05C157.46 213.49 157.91 213.04 158.46 213.04L175.81 213.04C176.37 213.04 176.82 213.49 176.82 214.05L176.82 214.43C176.82 214.99 176.37 215.44 175.81 215.44L158.46 215.44C157.91 215.44 157.46 214.99 157.46 214.43L157.46 214.05Z" />
					<path id="Rectangle_29" class="shp6" d="M157.46 208.31C157.46 207.76 157.91 207.31 158.46 207.31L175.81 207.31C176.37 207.31 176.82 207.76 176.82 208.31L176.82 208.7C176.82 209.26 176.37 209.71 175.81 209.71L158.46 209.71C157.91 209.71 157.46 209.26 157.46 208.7L157.46 208.31Z" />
					<path id="Rectangle_30" class="shp6" d="M157.46 202.58C157.46 202.02 157.91 201.57 158.46 201.57L175.81 201.57C176.37 201.57 176.82 202.02 176.82 202.58L176.82 202.97C176.82 203.52 176.37 203.97 175.81 203.97L158.46 203.97C157.91 203.97 157.46 203.52 157.46 202.97L157.46 202.58Z" />
				</g>
				<g id="Group_2" style="opacity: 0.169">
					<path id="Path_3" class="shp4" d="M296.08 237.7L275.03 237.7L339 173.72L339 194.78L296.08 237.7Z" />
					<path id="Path_4" class="shp4" d="M172.68 237.7L290.02 120.36L339 120.36L339 127.55L228.86 237.7L172.68 237.7Z" />
					<path id="Path_5" class="shp4" d="M191.79 120.36L239.2 120.36L140.76 218.81L140.76 171.39L191.79 120.36Z" />
				</g>
				<g id="Group_37">
					<g id="Group_36">
						<path id="Path_48" fill-rule="evenodd" class="shp7" d="M327.49 253.19C326.57 250.97 327.08 248.41 328.78 246.71C330.48 245.01 333.04 244.5 335.26 245.42C337.49 246.34 338.94 248.51 338.94 250.91C338.94 251.7 338.78 252.47 338.49 253.19C338.19 253.91 337.75 254.57 337.2 255.12C336.64 255.67 335.99 256.11 335.27 256.41C334.54 256.71 333.77 256.87 332.99 256.87C330.58 256.87 328.41 255.42 327.49 253.19ZM332.99 246.73C331.29 246.73 329.77 247.75 329.12 249.31C328.47 250.88 328.83 252.68 330.03 253.88C331.22 255.08 333.03 255.43 334.59 254.79C336.16 254.14 337.18 252.61 337.18 250.91C337.18 250.37 337.07 249.82 336.86 249.31C336.65 248.8 336.34 248.34 335.95 247.95C335.56 247.57 335.1 247.26 334.59 247.05C334.08 246.83 333.54 246.73 332.99 246.72L332.99 246.73Z" />
					</g>
					<path id="Path_49" class="shp8" d="M332.86 242.52L332.86 254.48C332.86 255.75 332.6 257 332.12 258.17C331.63 259.34 330.92 260.4 330.02 261.3C329.13 262.19 328.07 262.9 326.9 263.39C325.73 263.88 324.47 264.13 323.21 264.13L323.21 264.13C321.94 264.13 320.69 263.88 319.52 263.39C318.35 262.9 317.29 262.19 316.39 261.3C315.5 260.4 314.78 259.34 314.3 258.17C313.81 257 313.56 255.75 313.56 254.48L313.56 242.52L332.86 242.52Z" />
					<path id="Rectangle_75" class="shp7" d="M313.43 263.72C313.43 263.22 313.83 262.82 314.33 262.82L332.09 262.82C332.59 262.82 332.99 263.22 332.99 263.72L332.99 264.54C332.99 265.04 332.59 265.44 332.09 265.44L314.33 265.44C313.83 265.44 313.43 265.04 313.43 264.54L313.43 263.72Z" />
				</g>
				<g id="Group_40">
					<g id="Group_38">
						<path id="Path_50" fill-rule="evenodd" class="shp9" d="M195.79 77.22L68.01 77.22L67.9 76.64C67.32 73.81 67.6 70.87 68.72 68.2C69.84 65.54 71.74 63.27 74.16 61.7C76.59 60.13 79.43 59.33 82.32 59.4C85.21 59.48 88.01 60.42 90.36 62.11C91.92 54.34 95.98 47.28 101.91 42.01C107.84 36.75 115.32 33.55 123.23 32.91C131.13 32.27 139.03 34.22 145.73 38.47C152.43 42.71 157.56 49.02 160.36 56.45C163.44 53.64 167.27 51.79 171.38 51.12C175.49 50.45 179.71 50.98 183.53 52.67C187.34 54.35 190.58 57.11 192.85 60.6C195.13 64.09 196.34 68.17 196.34 72.33C196.34 72.7 196.33 73.06 196.31 73.42C196.3 73.78 196.27 74.14 196.23 74.5C196.2 74.86 196.15 75.22 196.1 75.57C196.04 75.93 195.98 76.29 195.91 76.64L195.79 77.22ZM194.61 75.78C195.11 72.9 194.97 69.94 194.21 67.11C193.45 64.29 192.08 61.67 190.19 59.43C188.31 57.19 185.96 55.39 183.31 54.15C180.66 52.91 177.77 52.27 174.84 52.27C173.52 52.27 172.2 52.4 170.9 52.66C169.6 52.91 168.33 53.3 167.1 53.81C165.88 54.33 164.71 54.96 163.62 55.7C162.52 56.44 161.5 57.3 160.57 58.24L159.75 59.07L159.38 57.97C156.85 50.58 151.93 44.24 145.4 39.96C138.86 35.68 131.09 33.71 123.3 34.35C115.52 34.98 108.17 38.2 102.42 43.49C96.67 48.77 92.85 55.83 91.56 63.53L91.35 64.79L90.38 63.96C88.51 62.35 86.21 61.31 83.76 60.96C81.31 60.62 78.82 60.98 76.57 62.02C74.32 63.05 72.42 64.7 71.09 66.78C69.75 68.87 69.05 71.29 69.05 73.76C69.05 73.93 69.05 74.1 69.06 74.27C69.06 74.44 69.07 74.6 69.09 74.77C69.1 74.94 69.12 75.11 69.14 75.28C69.16 75.44 69.18 75.61 69.2 75.78L194.61 75.78Z" />
					</g>
					<g id="Group_39">
						<path id="Path_51" fill-rule="evenodd" class="shp9" d="M121.7 70.44C121.34 70.44 120.98 70.37 120.64 70.23C120.31 70.09 120 69.89 119.75 69.63C119.49 69.38 119.29 69.07 119.15 68.74C119.01 68.4 118.94 68.04 118.94 67.68L118.94 60.59L115.88 60.59C115.38 60.59 114.89 60.44 114.47 60.16C114.06 59.89 113.73 59.49 113.54 59.03C113.35 58.56 113.3 58.05 113.39 57.56C113.49 57.07 113.73 56.62 114.09 56.26L125.7 44.65C125.94 44.42 126.22 44.24 126.53 44.12C126.84 44 127.16 43.93 127.49 43.93C127.82 43.93 128.15 44 128.46 44.12C128.77 44.24 129.05 44.42 129.29 44.65L140.9 56.26C141.25 56.62 141.49 57.07 141.59 57.56C141.69 58.05 141.64 58.56 141.45 59.03C141.26 59.49 140.93 59.89 140.51 60.16C140.1 60.44 139.61 60.59 139.11 60.59L136.05 60.59L136.05 67.68C136.05 68.04 135.97 68.4 135.84 68.74C135.7 69.07 135.49 69.37 135.24 69.63C134.98 69.89 134.68 70.09 134.34 70.23C134.01 70.37 133.65 70.44 133.29 70.44L121.7 70.44ZM127.49 45.35C127.42 45.35 127.35 45.35 127.28 45.37C127.21 45.38 127.14 45.4 127.07 45.43C127.01 45.46 126.94 45.49 126.88 45.53C126.83 45.57 126.77 45.62 126.72 45.67L115.11 57.28C114.95 57.43 114.85 57.63 114.81 57.84C114.77 58.05 114.79 58.27 114.87 58.47C114.96 58.67 115.1 58.84 115.27 58.96C115.45 59.09 115.66 59.15 115.88 59.15L120.38 59.15L120.38 67.68C120.38 67.85 120.42 68.02 120.48 68.18C120.55 68.34 120.65 68.49 120.77 68.61C120.89 68.74 121.04 68.83 121.2 68.9C121.36 68.97 121.53 69 121.7 69L133.29 69C133.46 69 133.64 68.97 133.8 68.9C133.96 68.83 134.1 68.74 134.23 68.61C134.35 68.49 134.45 68.34 134.51 68.18C134.58 68.02 134.61 67.85 134.61 67.68L134.61 59.15L139.11 59.15C139.33 59.15 139.54 59.09 139.72 58.96C139.9 58.84 140.04 58.67 140.12 58.47C140.21 58.27 140.23 58.05 140.19 57.84C140.14 57.63 140.04 57.43 139.89 57.28L128.27 45.67C128.22 45.62 128.16 45.57 128.1 45.53C128.04 45.49 127.98 45.46 127.91 45.43C127.85 45.4 127.78 45.38 127.71 45.37C127.64 45.35 127.57 45.35 127.49 45.35L127.49 45.35Z" />
					</g>
				</g>
				<g id="Group_43">
					<g id="Group_41">
						<path id="Path_52" fill-rule="evenodd" class="shp9" d="M311.25 24.21L258.87 24.21L258.82 23.97C258.8 23.88 258.78 23.78 258.77 23.68C258.75 23.58 258.74 23.49 258.73 23.39C258.72 23.29 258.71 23.19 258.71 23.09C258.7 22.99 258.7 22.89 258.7 22.8C258.7 21.71 259 20.65 259.56 19.72C260.13 18.8 260.94 18.05 261.9 17.55C262.87 17.06 263.95 16.84 265.03 16.92C266.11 17.01 267.15 17.38 268.03 18.02C268.67 14.83 270.33 11.94 272.76 9.78C275.19 7.62 278.26 6.31 281.5 6.05C284.74 5.79 287.98 6.59 290.72 8.33C293.47 10.07 295.58 12.65 296.72 15.7C297.98 14.55 299.55 13.79 301.24 13.51C302.93 13.24 304.66 13.46 306.22 14.15C307.78 14.84 309.11 15.97 310.04 17.4C310.97 18.83 311.47 20.5 311.47 22.21C311.47 22.36 311.47 22.5 311.46 22.65C311.45 22.8 311.44 22.95 311.43 23.09C311.41 23.24 311.39 23.39 311.37 23.54C311.35 23.68 311.33 23.83 311.3 23.97L311.25 24.21ZM259.36 23.62L310.76 23.62C310.77 23.5 310.79 23.39 310.81 23.27C310.82 23.15 310.83 23.04 310.84 22.92C310.85 22.8 310.86 22.68 310.87 22.56C310.87 22.45 310.87 22.33 310.88 22.21C310.88 20.58 310.39 18.98 309.48 17.63C308.57 16.28 307.28 15.22 305.78 14.6C304.27 13.98 302.61 13.83 301.01 14.15C299.41 14.48 297.95 15.27 296.8 16.43L296.47 16.77L296.31 16.32C295.28 13.29 293.26 10.69 290.58 8.94C287.9 7.18 284.72 6.37 281.52 6.63C278.33 6.9 275.32 8.21 272.96 10.38C270.61 12.55 269.04 15.44 268.51 18.6L268.43 19.12L268.03 18.78C267.2 18.07 266.19 17.64 265.11 17.53C264.03 17.42 262.95 17.65 262 18.18C261.05 18.7 260.29 19.51 259.82 20.48C259.34 21.46 259.18 22.55 259.35 23.62L259.36 23.62Z" />
					</g>
					<g id="Group_42">
						<path id="Path_53" fill-rule="evenodd" class="shp9" d="M285.62 21.43L280.87 21.43C280.73 21.43 280.58 21.4 280.44 21.35C280.3 21.29 280.18 21.21 280.07 21.1C279.97 21 279.89 20.87 279.83 20.73C279.77 20.6 279.74 20.45 279.74 20.3L279.74 17.4L278.49 17.4C278.28 17.4 278.08 17.33 277.91 17.22C277.74 17.11 277.61 16.94 277.53 16.75C277.45 16.56 277.43 16.35 277.47 16.15C277.51 15.95 277.61 15.77 277.75 15.62L282.51 10.86C282.61 10.77 282.73 10.69 282.85 10.64C282.98 10.59 283.11 10.57 283.25 10.57C283.38 10.57 283.52 10.59 283.64 10.64C283.77 10.69 283.88 10.77 283.98 10.86L288.74 15.62C288.89 15.77 288.99 15.95 289.03 16.15C289.07 16.36 289.05 16.56 288.97 16.75C288.89 16.94 288.76 17.11 288.59 17.22C288.42 17.34 288.21 17.4 288.01 17.4L286.75 17.4L286.75 20.3C286.75 20.45 286.72 20.6 286.67 20.73C286.61 20.87 286.53 21 286.42 21.1C286.32 21.21 286.19 21.29 286.06 21.35C285.92 21.4 285.77 21.43 285.62 21.43ZM283.25 11.15C283.22 11.15 283.19 11.15 283.16 11.15C283.13 11.16 283.11 11.17 283.08 11.18C283.05 11.19 283.03 11.21 283 11.22C282.98 11.24 282.95 11.26 282.93 11.28L278.17 16.04C278.11 16.1 278.07 16.18 278.05 16.27C278.03 16.36 278.04 16.45 278.08 16.53C278.11 16.61 278.17 16.68 278.24 16.73C278.31 16.78 278.4 16.81 278.49 16.81L280.33 16.8L280.33 20.3C280.33 20.38 280.35 20.45 280.38 20.51C280.4 20.58 280.44 20.64 280.49 20.69C280.54 20.74 280.6 20.78 280.67 20.8C280.73 20.83 280.8 20.85 280.88 20.85L285.62 20.85C285.7 20.85 285.77 20.83 285.83 20.81C285.9 20.78 285.96 20.74 286.01 20.69C286.06 20.64 286.1 20.58 286.13 20.51C286.15 20.45 286.17 20.38 286.17 20.3L286.17 16.81L288.01 16.81C288.1 16.81 288.19 16.78 288.26 16.73C288.33 16.68 288.39 16.61 288.43 16.53C288.46 16.45 288.47 16.36 288.45 16.27C288.43 16.19 288.39 16.11 288.33 16.04L283.57 11.28C283.55 11.26 283.52 11.24 283.5 11.23C283.48 11.21 283.45 11.19 283.42 11.18C283.39 11.17 283.37 11.16 283.34 11.16C283.31 11.15 283.28 11.15 283.25 11.15L283.25 11.15Z" />
					</g>
				</g>
				<g id="Group_48">
					<path id="Rectangle_88" class="shp10" d="M102.68 167.61L186.84 167.61L186.84 239.13C186.84 240.12 186.64 241.09 186.26 242C185.89 242.92 185.33 243.75 184.63 244.44C183.94 245.14 183.11 245.7 182.2 246.07C181.28 246.45 180.31 246.64 179.32 246.64L110.19 246.64C109.21 246.64 108.23 246.45 107.32 246.07C106.4 245.7 105.58 245.14 104.88 244.44C104.18 243.75 103.63 242.92 103.25 242C102.87 241.09 102.68 240.12 102.68 239.13L102.68 167.61Z" />
					<path id="Rectangle_89" class="shp10" d="M114.25 184.22L183.23 184.22L183.23 208.98L114.25 208.98L114.25 184.22Z" />
					<path id="Rectangle_90" class="shp10" d="M114.25 213.6L138.51 213.6L138.51 221.28L114.25 221.28L114.25 213.6Z" />
					<path id="Rectangle_91" class="shp10" d="M142.15 213.6L183.23 213.6L183.23 221.28L142.15 221.28L142.15 213.6Z" />
					<path id="Rectangle_92" class="shp10" d="M102.68 167.61L186.84 167.61L186.84 180.53L102.68 180.53L102.68 167.61Z" />
					<path id="Rectangle_93" class="shp11" d="M102.68 180.28L186.84 180.28L186.84 180.53L102.68 180.53L102.68 180.28Z" />
					<path id="Ellipse_21" class="shp5" d="M107.88 175.87C106.7 175.87 105.75 174.92 105.75 173.75C105.75 172.57 106.7 171.62 107.88 171.62C109.06 171.62 110 172.57 110 173.75C110 174.92 109.06 175.87 107.88 175.87Z" />
					<path id="Ellipse_22" class="shp5" d="M114.25 175.87C113.08 175.87 112.13 174.92 112.13 173.75C112.13 172.57 113.08 171.62 114.25 171.62C115.43 171.62 116.38 172.57 116.38 173.75C116.38 174.92 115.43 175.87 114.25 175.87Z" />
					<path id="Path_892" class="shp5" d="M120.58 171.62C121.44 171.62 122.21 172.14 122.54 172.93C122.87 173.73 122.69 174.64 122.08 175.25C121.47 175.86 120.56 176.04 119.77 175.71C118.97 175.38 118.45 174.61 118.45 173.75C118.45 173.47 118.51 173.19 118.62 172.93C118.72 172.68 118.88 172.44 119.08 172.25C119.27 172.05 119.51 171.89 119.77 171.78C120.02 171.68 120.3 171.62 120.58 171.62L120.58 171.62Z" />
					<path id="Rectangle_94" class="shp10" d="M105.75 183.97C105.75 183.09 106.46 182.38 107.34 182.38L108.42 182.38C109.3 182.38 110 183.09 110 183.97L110 239.95C110 240.83 109.3 241.54 108.42 241.54L107.34 241.54C106.46 241.54 105.75 240.83 105.75 239.95L105.75 183.97Z" />
					<path id="Rectangle_95" class="shp8" d="M106.88 184.85C106.88 184.5 107.16 184.22 107.51 184.22L107.95 184.22C108.3 184.22 108.58 184.5 108.58 184.85L108.58 199.11C108.58 199.46 108.3 199.74 107.95 199.74L107.51 199.74C107.16 199.74 106.88 199.46 106.88 199.11L106.88 184.85Z" />
					<path id="Line_45" class="shp12" d="M116.93 187.76L145.98 187.76" />
					<path id="Line_46" class="shp12" d="M148.74 187.76L153.47 187.76" />
					<path id="Line_47" class="shp12" d="M158.68 187.76L179.29 187.76" />
					<path id="Line_48" class="shp12" d="M116.93 190.74L152.06 190.74" />
					<path id="Line_49" class="shp12" d="M155.53 190.2L169.81 190.2" />
					<path id="Line_50" class="shp12" d="M172.45 190.2L179.72 190.2" />
					<path id="Line_51" class="shp12" d="M118.45 194.43L159.98 194.43" />
					<path id="Line_52" class="shp12" d="M164.86 194.43L176.09 194.43" />
					<path id="Line_53" class="shp12" d="M179.72 197.74L147.61 197.74" />
					<path id="Line_54" class="shp12" d="M161.39 202.24L116.93 202.24" />
					<path id="Line_55" class="shp12" d="M147.61 205.06L180.48 205.06" />
					<path id="Line_56" class="shp12" d="M151.11 206.47L124.06 206.47" />
					<path id="Line_57" class="shp12" d="M116.93 197.74L128.73 197.74" />
					<path id="Line_58" class="shp12" d="M135.89 215.37L127.75 215.37" />
					<path id="Line_59" class="shp12" d="M135.13 218.95L116.36 218.95" />
					<path id="Line_60" class="shp12" d="M144.25 215.37L147.61 215.37" />
					<path id="Line_61" class="shp12" d="M150.38 215.37L153.74 215.37" />
					<path id="Line_62" class="shp12" d="M156.5 215.37L159.87 215.37" />
					<path id="Line_63" class="shp12" d="M162.63 215.37L166 215.37" />
					<path id="Line_64" class="shp12" d="M168.76 215.37L172.13 215.37" />
					<path id="Line_65" class="shp12" d="M174.89 215.37L178.26 215.37" />
					<path id="Line_66" class="shp12" d="M144.25 217.98L146.41 217.98" />
					<path id="Line_67" class="shp12" d="M149.29 217.98L151.46 217.98" />
					<path id="Line_68" class="shp12" d="M154.34 217.98L156.5 217.98" />
					<path id="Line_69" class="shp12" d="M159.38 217.98L161.55 217.98" />
					<path id="Line_70" class="shp12" d="M164.43 217.98L166.59 217.98" />
					<path id="Line_71" class="shp12" d="M169.47 217.98L171.64 217.98" />
					<path id="Line_72" class="shp12" d="M174.52 217.98L176.69 217.98" />
					<path id="Path_65" class="shp12" d="M118.92 236.26L116.62 233.96L119.01 231.57" />
					<path id="Path_66" class="shp12" d="M121.31 236.26L119.01 233.96L121.4 231.57" />
				</g>
				<g id="Group_63">
					<path id="Rectangle_96" class="shp10" d="M310.9 208.57L378.01 208.57L378.01 235.14C378.01 236.13 377.81 237.1 377.43 238.02C377.06 238.93 376.5 239.76 375.81 240.45C375.11 241.15 374.28 241.71 373.37 242.08C372.45 242.46 371.48 242.66 370.49 242.66L318.42 242.66C317.43 242.66 316.45 242.46 315.54 242.08C314.63 241.71 313.8 241.15 313.1 240.45C312.4 239.76 311.85 238.93 311.47 238.02C311.1 237.1 310.9 236.13 310.9 235.14L310.9 208.57Z" />
					<path id="Rectangle_97" class="shp10" d="M317.82 218.51L356.82 218.51L356.82 233.31L317.82 233.31L317.82 218.51Z" />
					<path id="Rectangle_98" class="shp10" d="M310.9 208.57L378.01 208.57L378.01 216.3L310.9 216.3L310.9 208.57Z" />
					<path id="Ellipse_24" class="shp10" d="M314.01 213.85C313.13 213.85 312.41 213.13 312.41 212.24C312.41 211.36 313.13 210.64 314.01 210.64C314.9 210.64 315.62 211.36 315.62 212.24C315.62 213.13 314.9 213.85 314.01 213.85Z" />
					<path id="Path_67" class="shp8" d="M314.01 213.85C313.8 213.85 313.6 213.8 313.4 213.72C313.21 213.64 313.03 213.53 312.89 213.38C312.74 213.23 312.62 213.06 312.54 212.87C312.46 212.67 312.41 212.47 312.41 212.26L312.41 212.28C312.42 212.7 312.58 213.11 312.88 213.41C313.18 213.71 313.59 213.88 314.02 213.88C314.44 213.88 314.85 213.71 315.15 213.41C315.45 213.11 315.62 212.7 315.62 212.28L315.62 212.26C315.62 212.47 315.57 212.67 315.49 212.87C315.41 213.06 315.29 213.24 315.14 213.38C314.99 213.53 314.82 213.65 314.62 213.73C314.43 213.81 314.22 213.85 314.01 213.85Z" />
					<path id="Ellipse_25" class="shp10" d="M317.83 213.85C316.94 213.85 316.22 213.13 316.22 212.24C316.22 211.36 316.94 210.64 317.83 210.64C318.71 210.64 319.43 211.36 319.43 212.24C319.43 213.13 318.71 213.85 317.83 213.85Z" />
					<path id="Path_68" class="shp8" d="M317.83 213.85C317.62 213.85 317.41 213.8 317.22 213.72C317.02 213.64 316.85 213.53 316.7 213.38C316.55 213.23 316.43 213.06 316.35 212.87C316.27 212.67 316.23 212.47 316.23 212.26L316.23 212.28C316.23 212.7 316.4 213.11 316.7 213.41C317 213.71 317.4 213.88 317.83 213.88C318.25 213.88 318.66 213.71 318.96 213.41C319.26 213.11 319.43 212.7 319.43 212.28L319.43 212.26C319.43 212.47 319.39 212.67 319.31 212.87C319.22 213.06 319.11 213.24 318.96 213.38C318.81 213.53 318.63 213.65 318.44 213.73C318.24 213.81 318.04 213.85 317.83 213.85Z" />
					<path id="Ellipse_26" class="shp10" d="M321.61 213.85C320.72 213.85 320 213.13 320 212.24C320 211.36 320.72 210.64 321.61 210.64C322.49 210.64 323.21 211.36 323.21 212.24C323.21 213.13 322.49 213.85 321.61 213.85Z" />
					<path id="Path_69" class="shp8" d="M321.61 213.85C321.4 213.85 321.19 213.8 321 213.72C320.81 213.64 320.63 213.53 320.48 213.38C320.33 213.23 320.21 213.06 320.13 212.87C320.05 212.67 320.01 212.47 320.01 212.26L320.01 212.28C320.01 212.7 320.18 213.11 320.48 213.41C320.78 213.71 321.18 213.88 321.61 213.88C322.03 213.88 322.44 213.71 322.74 213.41C323.04 213.11 323.21 212.7 323.21 212.27L323.21 212.26C323.21 212.47 323.16 212.67 323.08 212.87C323 213.06 322.88 213.23 322.73 213.38C322.59 213.53 322.41 213.64 322.22 213.72C322.02 213.8 321.82 213.85 321.61 213.85Z" />
					<path id="Rectangle_99" class="shp11" d="M310.9 216.15L378.01 216.15L378.01 216.3L310.9 216.3L310.9 216.15Z" />
					<path id="Ellipse_27" class="shp8" d="M314.01 213.51C313.31 213.51 312.74 212.95 312.74 212.24C312.74 211.54 313.31 210.97 314.01 210.97C314.72 210.97 315.28 211.54 315.28 212.24C315.28 212.95 314.72 213.51 314.01 213.51Z" />
					<path id="Ellipse_28" class="shp13" d="M317.83 213.51C317.12 213.51 316.55 212.95 316.55 212.24C316.55 211.54 317.12 210.97 317.83 210.97C318.53 210.97 319.1 211.54 319.1 212.24C319.1 212.95 318.53 213.51 317.83 213.51Z" />
					<path id="Ellipse_29" class="shp14" d="M321.61 213.51C320.91 213.51 320.34 212.95 320.34 212.24C320.34 211.54 320.91 210.97 321.61 210.97C322.31 210.97 322.88 211.54 322.88 212.24C322.88 212.95 322.31 213.51 321.61 213.51Z" />
					<path id="Rectangle_100" class="shp10" d="M312.74 218.47C312.74 217.88 313.22 217.41 313.81 217.41L314.22 217.41C314.81 217.41 315.28 217.88 315.28 218.47L315.28 238.54C315.28 239.12 314.81 239.6 314.22 239.6L313.81 239.6C313.22 239.6 312.74 239.12 312.74 238.54L312.74 218.47Z" />
					<path id="Rectangle_101" class="shp8" d="M313.42 218.93C313.42 218.7 313.61 218.51 313.84 218.51L314 218.51C314.24 218.51 314.43 218.7 314.43 218.93L314.43 227.36C314.43 227.6 314.24 227.79 314 227.79L313.84 227.79C313.61 227.79 313.42 227.6 313.42 227.36L313.42 218.93Z" />
					<g id="Group_62">
						<g id="Group_49">
							<path id="Path_70" class="shp15" d="M331.56 220.09L319.28 220.09C319.23 220.09 319.17 220.07 319.13 220.03C319.09 219.99 319.07 219.94 319.07 219.88C319.07 219.83 319.09 219.77 319.13 219.73C319.17 219.7 319.23 219.67 319.28 219.67L331.56 219.67C331.61 219.67 331.67 219.7 331.7 219.73C331.74 219.77 331.77 219.83 331.77 219.88C331.77 219.94 331.74 219.99 331.7 220.03C331.67 220.07 331.61 220.09 331.56 220.09L331.56 220.09Z" />
						</g>
						<g id="Group_50">
							<path id="Path_71" class="shp15" d="M334.17 220.09L332.52 220.09C332.47 220.09 332.41 220.07 332.37 220.03C332.34 219.99 332.31 219.94 332.31 219.88C332.31 219.83 332.34 219.77 332.37 219.73C332.41 219.7 332.47 219.67 332.52 219.67L334.17 219.67C334.23 219.67 334.28 219.7 334.32 219.73C334.36 219.77 334.38 219.83 334.38 219.88C334.38 219.94 334.36 219.99 334.32 220.03C334.28 220.07 334.23 220.09 334.17 220.09L334.17 220.09Z" />
						</g>
						<g id="Group_51">
							<path id="Path_72" class="shp15" d="M350.88 220.09L335.99 220.09C335.94 220.09 335.89 220.07 335.85 220.03C335.81 219.99 335.79 219.94 335.79 219.88C335.79 219.83 335.81 219.77 335.85 219.73C335.89 219.7 335.94 219.67 336 219.67L350.88 219.67C350.94 219.67 350.99 219.7 351.03 219.73C351.07 219.77 351.09 219.83 351.09 219.88C351.09 219.94 351.07 219.99 351.03 220.03C350.99 220.07 350.94 220.09 350.88 220.09L350.88 220.09Z" />
						</g>
						<g id="Group_52">
							<path id="Path_73" class="shp15" d="M333.68 221.13L319.28 221.13C319.23 221.14 319.17 221.11 319.13 221.07C319.09 221.04 319.07 220.98 319.07 220.93C319.07 220.87 319.09 220.82 319.13 220.78C319.17 220.74 319.23 220.72 319.28 220.72L333.68 220.72C333.74 220.72 333.79 220.74 333.83 220.78C333.87 220.82 333.89 220.87 333.89 220.93C333.89 220.98 333.87 221.04 333.83 221.07C333.79 221.11 333.74 221.13 333.68 221.13L333.68 221.13Z" />
						</g>
						<g id="Group_53">
							<path id="Path_74" class="shp15" d="M347.57 220.95L334.89 220.95C334.84 220.95 334.79 220.92 334.75 220.89C334.71 220.85 334.69 220.79 334.69 220.74C334.69 220.68 334.71 220.63 334.75 220.59C334.79 220.55 334.84 220.53 334.89 220.53L347.57 220.53C347.62 220.53 347.68 220.55 347.71 220.59C347.75 220.63 347.77 220.68 347.77 220.74C347.77 220.79 347.75 220.85 347.71 220.89C347.68 220.92 347.62 220.95 347.57 220.95L347.57 220.95Z" />
						</g>
						<g id="Group_54">
							<path id="Path_75" class="shp15" d="M351.03 220.95L348.49 220.95C348.44 220.95 348.39 220.92 348.35 220.89C348.31 220.85 348.29 220.79 348.29 220.74C348.29 220.68 348.31 220.63 348.35 220.59C348.39 220.55 348.44 220.53 348.49 220.53L351.03 220.53C351.09 220.53 351.14 220.55 351.18 220.59C351.22 220.63 351.24 220.68 351.24 220.74C351.24 220.79 351.22 220.85 351.18 220.89C351.14 220.92 351.09 220.95 351.03 220.95L351.03 220.95Z" />
						</g>
						<g id="Group_55">
							<path id="Path_76" class="shp15" d="M336.45 222.43L319.81 222.43C319.75 222.43 319.7 222.41 319.65 222.37C319.61 222.33 319.59 222.27 319.59 222.22C319.59 222.16 319.61 222.1 319.65 222.06C319.7 222.02 319.75 222 319.81 222.01L336.45 222.01C336.51 222 336.56 222.02 336.61 222.06C336.65 222.1 336.67 222.16 336.67 222.22C336.67 222.27 336.65 222.33 336.61 222.37C336.56 222.41 336.51 222.43 336.45 222.43Z" />
						</g>
						<g id="Group_56">
							<path id="Path_77" class="shp15" d="M349.76 222.43L345.84 222.43C345.78 222.43 345.72 222.41 345.68 222.37C345.64 222.33 345.61 222.27 345.61 222.22C345.61 222.16 345.64 222.1 345.68 222.06C345.72 222.02 345.78 222 345.84 222.01L349.76 222.01C349.82 222 349.88 222.02 349.92 222.06C349.96 222.1 349.99 222.16 349.99 222.22C349.99 222.27 349.96 222.33 349.92 222.37C349.88 222.41 349.82 222.43 349.76 222.43Z" />
						</g>
						<g id="Group_57">
							<path id="Path_78" class="shp15" d="M351.03 223.58L332.13 223.58C332.07 223.58 332.02 223.56 331.99 223.52C331.95 223.48 331.93 223.43 331.93 223.38C331.93 223.32 331.95 223.27 331.99 223.23C332.02 223.19 332.07 223.17 332.13 223.17L351.03 223.17C351.09 223.17 351.14 223.19 351.17 223.23C351.21 223.27 351.23 223.32 351.23 223.38C351.23 223.43 351.21 223.48 351.17 223.52C351.14 223.56 351.09 223.58 351.03 223.58Z" />
						</g>
						<g id="Group_58">
							<path id="Path_79" class="shp15" d="M336.94 225.16L319.28 225.16C319.23 225.16 319.17 225.13 319.13 225.09C319.09 225.06 319.07 225 319.07 224.95C319.07 224.89 319.09 224.84 319.13 224.8C319.17 224.76 319.23 224.74 319.28 224.74L336.94 224.74C337 224.74 337.05 224.76 337.09 224.8C337.13 224.84 337.15 224.89 337.15 224.95C337.15 225 337.13 225.06 337.09 225.09C337.05 225.13 337 225.16 336.94 225.16Z" />
						</g>
						<g id="Group_59">
							<path id="Path_80" class="shp15" d="M351.3 226.14L332.13 226.14C332.07 226.14 332.02 226.11 331.99 226.08C331.95 226.04 331.93 225.99 331.93 225.93C331.93 225.88 331.95 225.83 331.99 225.79C332.02 225.75 332.07 225.73 332.13 225.72L351.3 225.72C351.35 225.73 351.4 225.75 351.44 225.79C351.47 225.83 351.49 225.88 351.49 225.93C351.49 225.99 351.47 226.04 351.44 226.08C351.4 226.11 351.35 226.14 351.3 226.14L351.3 226.14Z" />
						</g>
						<g id="Group_60">
							<path id="Path_81" class="shp15" d="M327.05 226.63L321.77 226.63C321.72 226.63 321.66 226.61 321.62 226.57C321.59 226.53 321.56 226.48 321.56 226.43C321.56 226.37 321.59 226.32 321.62 226.28C321.66 226.24 321.72 226.22 321.77 226.22L327.05 226.22C327.1 226.22 327.16 226.24 327.2 226.28C327.23 226.32 327.26 226.37 327.26 226.43C327.26 226.48 327.23 226.53 327.2 226.57C327.16 226.61 327.1 226.63 327.05 226.63L327.05 226.63Z" />
						</g>
						<g id="Group_61">
							<path id="Path_82" class="shp15" d="M323.4 223.58L319.28 223.58C319.22 223.59 319.17 223.57 319.12 223.53C319.08 223.49 319.06 223.43 319.06 223.38C319.06 223.32 319.08 223.26 319.12 223.22C319.17 223.18 319.22 223.16 319.28 223.17L323.4 223.17C323.46 223.17 323.51 223.19 323.54 223.23C323.58 223.27 323.6 223.32 323.6 223.38C323.6 223.43 323.58 223.48 323.54 223.52C323.51 223.56 323.46 223.58 323.4 223.58Z" />
						</g>
					</g>
				</g>
				<g id="Group_65">
					<g id="Group_64">
						<path id="Rectangle_102" class="shp10" d="M277.27 36.45L396.93 36.45L396.93 202.59C396.93 203.58 396.73 204.55 396.35 205.46C395.98 206.38 395.42 207.21 394.72 207.9C394.03 208.6 393.2 209.16 392.29 209.53C391.37 209.91 390.4 210.1 389.41 210.1L284.79 210.1C283.8 210.1 282.82 209.91 281.91 209.53C281 209.16 280.17 208.6 279.47 207.9C278.78 207.21 278.22 206.38 277.84 205.46C277.47 204.55 277.27 203.58 277.27 202.59L277.27 36.45Z" />
						<path id="Rectangle_103" class="shp10" d="M293.18 59.27L387.96 59.27L387.96 142.2L293.18 142.2L293.18 59.27Z" />
						<path id="Rectangle_104" class="shp10" d="M293.18 164.7L326.51 164.7L326.51 175.25L293.18 175.25L293.18 164.7Z" />
						<path id="Rectangle_105" class="shp10" d="M331.51 164.7L387.96 164.7L387.96 175.25L331.51 175.25L331.51 164.7Z" />
						<path id="Rectangle_106" class="shp10" d="M293.18 181.59L387.96 181.59L387.96 196.32L293.18 196.32L293.18 181.59Z" />
						<path id="Rectangle_107" class="shp10" d="M277.27 36.45L396.93 36.45L396.93 54.2L277.27 54.2L277.27 36.45Z" />
						<path id="Rectangle_108" class="shp11" d="M277.27 53.86L396.93 53.86L396.93 54.2L277.27 54.2L277.27 53.86Z" />
						<path id="Ellipse_33" class="shp5" d="M284.42 47.8C282.81 47.8 281.5 46.49 281.5 44.88C281.5 43.26 282.81 41.96 284.42 41.96C286.04 41.96 287.34 43.26 287.34 44.88C287.34 46.49 286.04 47.8 284.42 47.8Z" />
						<path id="Ellipse_34" class="shp5" d="M293.18 47.8C291.57 47.8 290.26 46.49 290.26 44.88C290.26 43.26 291.57 41.96 293.18 41.96C294.8 41.96 296.1 43.26 296.1 44.88C296.1 46.49 294.8 47.8 293.18 47.8Z" />
						<path id="Ellipse_35" class="shp5" d="M301.87 47.8C300.26 47.8 298.95 46.49 298.95 44.88C298.95 43.26 300.26 41.96 301.87 41.96C303.49 41.96 304.79 43.26 304.79 44.88C304.79 46.49 303.49 47.8 301.87 47.8Z" />
						<path id="Rectangle_109" class="shp10" d="M281.5 59.19C281.5 57.84 282.6 56.74 283.95 56.74L284.89 56.74C286.24 56.74 287.34 57.84 287.34 59.19L287.34 200.64C287.34 201.99 286.24 203.08 284.89 203.08L283.95 203.08C282.6 203.08 281.5 201.99 281.5 200.64L281.5 59.19Z" />
						<path id="Rectangle_110" class="shp8" d="M283.05 60.25C283.05 59.71 283.49 59.27 284.03 59.27L284.41 59.27C284.95 59.27 285.38 59.71 285.38 60.25L285.38 79.62C285.38 80.16 284.95 80.6 284.41 80.6L284.03 80.6C283.49 80.6 283.05 80.16 283.05 79.62L283.05 60.25Z" />
						<path id="Line_76" class="shp12" d="M296.86 64.13L336.77 64.13" />
						<path id="Line_77" class="shp12" d="M340.57 64.13L347.06 64.13" />
						<path id="Line_78" class="shp12" d="M354.22 64.13L382.54 64.13" />
						<path id="Line_79" class="shp12" d="M296.86 68.23L345.12 68.23" />
						<path id="Line_80" class="shp12" d="M349.89 67.48L369.51 67.48" />
						<path id="Line_81" class="shp12" d="M373.15 67.48L383.14 67.48" />
						<path id="Line_82" class="shp12" d="M298.95 73.3L356.01 73.3" />
						<path id="Line_83" class="shp12" d="M362.71 73.3L378.14 73.3" />
						<path id="Line_84" class="shp12" d="M383.14 77.85L339.01 77.85" />
						<path id="Line_85" class="shp12" d="M357.94 84.03L296.86 84.03" />
						<path id="Line_86" class="shp12" d="M339.01 87.91L384.18 87.91" />
						<path id="Line_87" class="shp12" d="M382.44 148.36L345.28 148.36" />
						<path id="Line_88" class="shp12" d="M296.86 77.85L313.07 77.85" />
						<path id="Line_89" class="shp12" d="M322.91 167.13L311.73 167.13" />
						<path id="Line_90" class="shp12" d="M321.87 172.05L296.08 172.05" />
						<path id="Line_91" class="shp12" d="M334.39 167.13L339.01 167.13" />
						<path id="Line_92" class="shp12" d="M342.81 167.13L347.43 167.13" />
						<path id="Line_93" class="shp12" d="M351.24 167.13L355.86 167.13" />
						<path id="Line_94" class="shp12" d="M359.66 167.13L364.28 167.13" />
						<path id="Line_95" class="shp12" d="M368.08 167.13L372.7 167.13" />
						<path id="Line_96" class="shp12" d="M376.5 167.13L381.13 167.13" />
						<path id="Line_97" class="shp12" d="M334.39 170.72L337.37 170.72" />
						<path id="Line_98" class="shp12" d="M341.32 170.72L344.3 170.72" />
						<path id="Line_99" class="shp12" d="M348.25 170.72L351.24 170.72" />
						<path id="Line_100" class="shp12" d="M355.19 170.72L358.17 170.72" />
						<path id="Line_101" class="shp12" d="M362.12 170.72L365.1 170.72" />
						<path id="Line_102" class="shp12" d="M369.05 170.72L372.03 170.72" />
						<path id="Line_103" class="shp12" d="M375.98 170.72L378.97 170.72" />
						<path id="Path_86" class="shp12" d="M299.59 191.79L296.44 188.64L299.72 185.36" />
						<path id="Path_87" class="shp12" d="M302.88 191.79L299.72 188.64L303 185.36" />
						<path id="Line_104" class="shp12" d="M311.13 185.36L381.13 185.36" />
						<path id="Line_105" class="shp12" d="M311.13 188.57L353.55 188.57" />
						<path id="Line_106" class="shp12" d="M311.13 193.1L353.55 193.1" />
					</g>
				</g>
				<g id="Group_66">
					<path id="Path_93" fill-rule="evenodd" class="shp9" d="M390.23 214.66C389.11 211.96 389.73 208.84 391.8 206.77C393.88 204.7 396.99 204.08 399.7 205.2C402.4 206.32 404.17 208.96 404.17 211.89C404.17 212.84 403.98 213.78 403.62 214.66C403.25 215.54 402.72 216.34 402.05 217.01C401.37 217.68 400.57 218.22 399.7 218.58C398.82 218.95 397.88 219.13 396.93 219.13C394 219.13 391.36 217.37 390.23 214.66ZM391.44 209.62C390.52 211.84 391.03 214.39 392.73 216.09C394.43 217.79 396.98 218.3 399.2 217.38C401.42 216.46 402.87 214.29 402.87 211.89C402.86 211.11 402.71 210.34 402.41 209.62C402.11 208.9 401.68 208.25 401.12 207.69C400.57 207.14 399.92 206.71 399.2 206.41C398.48 206.11 397.71 205.95 396.93 205.95C394.52 205.95 392.36 207.4 391.44 209.62Z" />
				</g>
				<g id="Group_67">
					<path id="Path_94" fill-rule="evenodd" class="shp9" d="M70.86 185.49C69.74 182.79 70.36 179.67 72.43 177.6C74.5 175.53 77.61 174.91 80.32 176.03C83.03 177.15 84.79 179.79 84.79 182.72C84.79 183.67 84.6 184.62 84.24 185.49C83.87 186.37 83.34 187.17 82.67 187.84C81.99 188.51 81.2 189.05 80.32 189.41C79.44 189.78 78.5 189.96 77.55 189.97C74.62 189.97 71.98 188.2 70.86 185.49ZM72.06 180.45C71.14 182.67 71.65 185.22 73.35 186.92C75.05 188.62 77.6 189.13 79.82 188.21C82.04 187.29 83.49 185.13 83.49 182.72C83.49 181.94 83.33 181.17 83.03 180.45C82.73 179.73 82.3 179.08 81.75 178.53C81.19 177.97 80.54 177.54 79.82 177.24C79.1 176.94 78.33 176.79 77.55 176.78C75.15 176.78 72.98 178.23 72.06 180.45Z" />
				</g>
				<g id="Group_70">
					<g id="Group_68">
						<path id="Rectangle_111" class="shp9" d="M205.88 50.03L207.57 48.34L222.68 63.45L221 65.14L205.88 50.03Z" />
					</g>
					<g id="Group_69">
						<path id="Rectangle_112" class="shp9" d="M205.88 63.45L221 48.34L222.68 50.03L207.57 65.14L205.88 63.45Z" />
					</g>
				</g>
				<g id="Group_72">
					<path id="Path_96" fill-rule="evenodd" class="shp9" d="M81.72 240.56L64.73 223.57L81.72 206.58L98.71 223.57L81.72 240.56ZM68.11 223.57L81.73 237.19L95.34 223.57L81.73 209.95L68.11 223.57Z" />
				</g>
				<g id="Group_2129">
					<path id="Path_96-2" fill-rule="evenodd" class="shp9" d="M113.08 321.08L96.09 304.09L113.08 287.1L130.07 304.09L113.08 321.08ZM99.47 304.09L113.08 317.71L126.7 304.09L113.08 290.47L99.47 304.09Z" />
				</g>
				<g id="Group_76">
					<g id="Group_74">
						<path id="Path_98" class="shp9" d="M429.27 175.03L419.27 165.04L429.27 155.05L430.31 156.09L421.36 165.04L430.31 173.99L429.27 175.03Z" />
					</g>
					<g id="Group_75">
						<path id="Path_99" class="shp9" d="M436.96 175.03L426.96 165.04L436.96 155.05L438 156.09L429.05 165.04L438 173.99L436.96 175.03Z" />
					</g>
				</g>
				<g id="Group_2126">
					<g id="Group_74-2">
						<path id="Path_98-2" class="shp9" d="M143.46 333.46L152.4 324.51L143.46 315.56L144.5 314.52L154.49 324.51L144.5 334.5L143.46 333.46Z" />
					</g>
					<g id="Group_75-2">
						<path id="Path_99-2" class="shp9" d="M135.77 333.46L144.71 324.51L135.77 315.56L136.81 314.52L146.8 324.51L136.81 334.5L135.77 333.46Z" />
					</g>
				</g>
				<g id="Group_79">
					<g id="Group_77">
						<path id="Path_100" class="shp9" d="M267.54 105.14L257.55 95.15L267.54 85.16L268.58 86.2L259.63 95.15L268.58 104.1L267.54 105.14Z" />
					</g>
					<g id="Group_78">
						<path id="Path_101" class="shp9" d="M275.23 105.14L265.23 95.15L275.23 85.16L276.27 86.2L267.32 95.15L276.27 104.1L275.23 105.14Z" />
					</g>
				</g>
				<g id="Group_81">
					<path id="Path_103" fill-rule="evenodd" class="shp9" d="M415.8 131.51C415.56 131.51 415.32 131.46 415.1 131.37C414.88 131.28 414.68 131.14 414.51 130.97C414.34 130.8 414.2 130.6 414.11 130.38C414.02 130.16 413.97 129.92 413.97 129.68L413.97 125.59L412.3 125.59C411.97 125.59 411.64 125.49 411.36 125.31C411.09 125.12 410.87 124.86 410.74 124.55C410.61 124.24 410.58 123.9 410.65 123.58C410.71 123.25 410.87 122.95 411.11 122.71L418.08 115.74C418.24 115.58 418.42 115.46 418.63 115.37C418.83 115.29 419.05 115.25 419.27 115.25C419.5 115.25 419.72 115.29 419.92 115.37C420.12 115.46 420.31 115.58 420.47 115.74L427.44 122.71C427.68 122.95 427.84 123.25 427.9 123.58C427.97 123.9 427.93 124.24 427.81 124.55C427.68 124.86 427.46 125.12 427.18 125.31C426.91 125.49 426.58 125.59 426.25 125.59L424.58 125.59L424.58 129.69C424.58 129.92 424.53 130.16 424.44 130.38C424.35 130.6 424.21 130.8 424.04 130.97C423.87 131.14 423.67 131.28 423.45 131.37C423.23 131.46 422.99 131.51 422.76 131.51L415.8 131.51ZM419.18 116.45C419.15 116.45 419.12 116.46 419.09 116.48C419.06 116.49 419.03 116.5 419 116.52C418.97 116.54 418.95 116.56 418.93 116.58L411.95 123.55C411.88 123.62 411.84 123.71 411.82 123.81C411.8 123.9 411.81 124 411.85 124.09C411.88 124.18 411.95 124.26 412.03 124.31C412.11 124.37 412.2 124.4 412.3 124.4L415.17 124.4L415.17 129.68C415.17 129.76 415.18 129.85 415.22 129.92C415.25 130 415.29 130.07 415.35 130.13C415.41 130.19 415.48 130.23 415.56 130.26C415.63 130.3 415.72 130.31 415.8 130.31L422.76 130.31C422.84 130.31 422.92 130.3 423 130.26C423.07 130.23 423.14 130.19 423.2 130.13C423.26 130.07 423.31 130 423.34 129.92C423.37 129.85 423.39 129.76 423.39 129.68L423.39 124.4L426.25 124.4C426.35 124.4 426.44 124.37 426.53 124.31C426.61 124.26 426.67 124.18 426.71 124.09C426.74 124 426.75 123.9 426.73 123.81C426.72 123.71 426.67 123.62 426.6 123.55L419.63 116.58C419.6 116.56 419.58 116.54 419.55 116.52C419.52 116.5 419.5 116.48 419.47 116.47C419.44 116.46 419.4 116.45 419.37 116.45C419.34 116.44 419.31 116.44 419.28 116.44C419.24 116.44 419.21 116.44 419.18 116.45Z" />
				</g>
			</g>
		</g>
	</g>
</svg>