<svg version="1.2" baseProfile="tiny-ps" xmlns="http://www.w3.org/2000/svg" viewBox="0 0 475 450" width="475" height="450">
	<title>vi-5-svg</title>
	<defs>
		<clipPath clipPathUnits="userSpaceOnUse" id="cp1">
			<path d="M0 0L475 0L475 450L0 450L0 0Z" />
		</clipPath>
	</defs>
	<style>
		tspan { white-space:pre }
		.shp0 { fill: #34fbe7 } 
		.shp1 { fill: #2d61f0 } 
	</style>
	<g id="Clip-Path: laptop_1" clip-path="url(#cp1)">
		<g id="laptop_1">
			<g id="banner-image">
				<g id="php-1">
					<path id="Ellipse_41" class="shp0" d="M359.53 127.58C349.1 127.58 340.67 123.19 340.67 117.76C340.67 112.34 349.1 107.95 359.53 107.95C369.95 107.95 378.38 112.34 378.38 117.76C378.38 123.19 369.95 127.58 359.53 127.58Z" />
					<path id="Path_4593" fill-rule="evenodd" class="shp1" d="M345.97 123.58L348.03 113.12L352.81 113.12C354.88 113.24 355.91 114.28 355.91 116.09C355.94 116.71 355.84 117.33 355.62 117.92C355.4 118.5 355.06 119.03 354.62 119.48C354.19 119.93 353.66 120.28 353.09 120.52C352.51 120.76 351.89 120.88 351.26 120.86L348.94 120.86L348.42 123.58L345.97 123.58ZM351.01 118.93C352.17 118.8 353.2 118.41 353.33 116.21C353.33 115.44 352.68 115.05 351.78 115.05L350.1 115.05L349.45 118.93L351.01 118.93ZM355.43 120.86L357.5 110.4L359.95 110.4L359.43 113.12L361.76 113.12C363.82 113.24 364.6 114.28 364.34 115.57L363.44 120.86L360.85 120.86L361.75 116.09C361.88 115.44 361.88 115.05 360.98 115.05L359.05 115.05L357.88 120.86L355.43 120.86ZM363.27 123.58L365.34 113.12L370.12 113.12C372.18 113.24 373.22 114.28 373.22 116.09C373.25 116.71 373.15 117.33 372.92 117.92C372.7 118.5 372.36 119.03 371.93 119.48C371.49 119.93 370.97 120.28 370.39 120.52C369.81 120.76 369.19 120.88 368.57 120.86L366.24 120.86L365.72 123.58L363.27 123.58ZM368.31 118.93C369.47 118.8 370.5 118.41 370.63 116.21C370.63 115.44 369.98 115.05 369.08 115.05L367.4 115.05L366.76 118.93L368.31 118.93Z" />
				</g>
			</g>
		</g>
	</g>
</svg>